<?xml version="1.0" encoding="UTF-8" standalone="no"?>
<!DOCTYPE svg PUBLIC "-//W3C//DTD SVG 1.1//EN" "http://www.w3.org/Graphics/SVG/1.1/DTD/svg11.dtd">
<svg width="100%" height="100%" viewBox="0 0 1549 633" version="1.1"
    xmlns="http://www.w3.org/2000/svg" xmlns:xlink="http://www.w3.org/1999/xlink"
    xml:space="preserve" xmlns:serif="http://www.serif.com/"
    style="fill-rule:evenodd;clip-rule:evenodd;stroke-linejoin:round;stroke-miterlimit:2;">
    <g transform="matrix(1,0,0,1,-4264.26,-81.5661)">
        <g transform="matrix(1.01156,0,0,0.880943,-59.3288,56.379)">
            <g transform="matrix(0.988569,0,0,1.13515,58.6506,-63.9985)">
                <path d="M4320.39,539.059C4322.52,503.317 4314.66,393.452 4308.41,378.389C4314.07,366.874 4315.48,348.988 4317.18,331.892L4316.11,122.504C4316.73,113.971 4307.71,107.749 4297.77,101.162L4478.9,100.316C4520.3,102.018 4561.2,106.826 4594.32,121.804L4848.5,126.229L5090.66,127.149C5140.28,123.522 5180.01,123.273 5220.1,122.903L5321.15,123.685L5464.58,124.326L5531.23,124.178C5550.09,121.756 5559.85,117.01 5566.04,103.098L5711.7,104.833L5713.98,160.21L5729.22,215.526C5741.76,279.048 5764.97,328.271 5792.98,366.412C5785.36,381.626 5785.35,400.797 5788.61,419.95C5796.25,471.58 5796.31,523.136 5787.56,583.862C5763.18,650.942 5723.53,676.422 5657.91,685.082C5619.94,689.954 5586.93,679.111 5559.94,649.124C5549.48,639.645 5532.5,635.873 5507.71,636.45C5459.85,637.08 5412.95,635.645 5367.07,632.032C5252.16,631.385 5137.36,632.621 5020.59,633.833C4853.27,635.316 4675.49,641.772 4516.16,642.844C4490.77,662.045 4471.47,671.248 4446.44,676.18L4329.98,677.481C4318.21,679.908 4295.47,684.464 4283.02,695.629C4294.75,679.59 4308.77,658.709 4312.63,645.091L4320.39,539.059Z" style="stroke:black;stroke-width:37.5px;"/>
            </g>
        </g>
        <g transform="matrix(1.01156,0,0,0.880943,-59.3288,56.379)">
            <g transform="matrix(0.988569,0,0,1.13515,58.6506,-63.9985)">
                <path d="M4824.24,611.79L4827.39,415.847C4825.55,397.012 4814.69,385.327 4796.56,379.403L4894.11,380.288L4893.84,400.199C4915.87,435.247 4946.09,467.354 4975.74,497.199L4975.61,403.916C4975.08,392.08 4962.23,384.569 4946.7,381.188L5029.12,381.284C5022.53,382.894 5018.69,386.477 5018.02,392.329L5018.74,627.801L4986.13,627.566C4952.53,571.483 4912.11,515.469 4867.88,464.881L4871.33,603.583C4873.69,617.741 4876.86,620.493 4889.99,625.486L4809.19,625.646C4819.06,624.312 4824.18,619.767 4824.24,611.79Z" style="fill:rgb(241,233,210);"/>
                <path d="M5030.53,393.982L5031.24,627.763C5031.25,631.1 5029.93,634.303 5027.56,636.658C5025.2,639.013 5021.99,640.325 5018.65,640.301L4986.04,640.066C4981.68,640.035 4977.65,637.732 4975.4,633.99C4948.04,588.317 4916.1,542.691 4881.26,500.07C4881.26,500.07 4883.81,602.423 4883.8,602.417C4884.35,605.833 4884.59,608.112 4885.98,609.684C4887.65,611.573 4890.41,612.271 4894.44,613.801C4900.07,615.943 4903.38,621.801 4902.29,627.731C4901.21,633.661 4896.05,637.974 4890.02,637.986L4809.22,638.146C4802.63,638.159 4797.17,633.065 4796.72,626.498C4796.27,619.931 4800.99,614.141 4807.52,613.259C4808.66,613.104 4809.7,612.894 4810.62,612.589C4811.19,612.401 4811.74,612.272 4811.74,611.7C4811.74,611.664 4811.74,611.627 4811.74,611.59C4811.74,611.59 4814.88,416.404 4814.88,416.398C4813.37,403.352 4805.4,395.443 4792.68,391.285C4786.82,389.37 4783.23,383.467 4784.22,377.382C4785.22,371.296 4790.51,366.847 4796.67,366.903L4894.22,367.788C4897.54,367.818 4900.72,369.171 4903.04,371.548C4905.37,373.925 4906.65,377.13 4906.6,380.454C4906.6,380.454 4906.39,396.632 4906.39,396.632C4922.33,421.32 4942.37,444.486 4963.2,466.42C4963.2,466.42 4963.11,404.296 4963.11,404.287C4962.93,402.24 4961.29,400.839 4959.45,399.506C4955.46,396.618 4949.98,394.694 4944.04,393.402C4937.8,392.044 4933.59,386.196 4934.27,379.844C4934.96,373.493 4940.32,368.681 4946.71,368.688L5029.14,368.784C5035.46,368.791 5040.78,373.519 5041.54,379.798C5042.29,386.076 5038.23,391.927 5032.09,393.427C5031.61,393.545 5030.96,393.799 5030.53,393.982ZM4824.24,611.79C4824.18,619.767 4819.06,624.312 4809.19,625.646L4889.99,625.486C4876.86,620.493 4873.69,617.741 4871.33,603.583L4867.88,464.881C4912.11,515.469 4952.53,571.483 4986.13,627.566L5018.74,627.801L5018.02,392.329C5018.69,386.477 5022.53,382.894 5029.12,381.284L4946.7,381.188C4962.23,384.569 4975.08,392.08 4975.61,403.916L4975.74,497.199C4946.09,467.354 4915.87,435.247 4893.84,400.199L4894.11,380.288L4796.56,379.403C4814.69,385.327 4825.55,397.012 4827.39,415.847L4824.24,611.79Z"/>
            </g>
            <g transform="matrix(0.988569,0,0,1.13515,58.6506,-63.9985)">
                <path d="M5030.53,393.982L5031.24,627.763C5031.25,631.1 5029.93,634.303 5027.56,636.658C5025.2,639.013 5021.99,640.325 5018.65,640.301L4986.04,640.066C4981.68,640.035 4977.65,637.732 4975.4,633.99C4948.04,588.317 4916.1,542.691 4881.26,500.07C4881.26,500.07 4883.81,602.423 4883.8,602.417C4884.35,605.833 4884.59,608.112 4885.98,609.684C4887.65,611.573 4890.41,612.271 4894.44,613.801C4900.07,615.943 4903.38,621.801 4902.29,627.731C4901.21,633.661 4896.05,637.974 4890.02,637.986L4809.22,638.146C4802.63,638.159 4797.17,633.065 4796.72,626.498C4796.27,619.931 4800.99,614.141 4807.52,613.259C4808.66,613.104 4809.7,612.894 4810.62,612.589C4811.19,612.401 4811.74,612.272 4811.74,611.7C4811.74,611.664 4811.74,611.627 4811.74,611.59C4811.74,611.59 4814.88,416.404 4814.88,416.398C4813.37,403.352 4805.4,395.443 4792.68,391.285C4786.82,389.37 4783.23,383.467 4784.22,377.382C4785.22,371.296 4790.51,366.847 4796.67,366.903L4894.22,367.788C4897.54,367.818 4900.72,369.171 4903.04,371.548C4905.37,373.925 4906.65,377.13 4906.6,380.454C4906.6,380.454 4906.39,396.632 4906.39,396.632C4922.33,421.32 4942.37,444.486 4963.2,466.42C4963.2,466.42 4963.11,404.296 4963.11,404.287C4962.93,402.24 4961.29,400.839 4959.45,399.506C4955.46,396.618 4949.98,394.694 4944.04,393.402C4937.8,392.044 4933.59,386.196 4934.27,379.844C4934.96,373.493 4940.32,368.681 4946.71,368.688L5029.14,368.784C5035.46,368.791 5040.78,373.519 5041.54,379.798C5042.29,386.076 5038.23,391.927 5032.09,393.427C5031.61,393.545 5030.96,393.799 5030.53,393.982ZM4824.24,611.79C4824.18,619.767 4819.06,624.312 4809.19,625.646L4889.99,625.486C4876.86,620.493 4873.69,617.741 4871.33,603.583L4867.88,464.881C4912.11,515.469 4952.53,571.483 4986.13,627.566L5018.74,627.801L5018.02,392.329C5018.69,386.477 5022.53,382.894 5029.12,381.284L4946.7,381.188C4962.23,384.569 4975.08,392.08 4975.61,403.916L4975.74,497.199C4946.09,467.354 4915.87,435.247 4893.84,400.199L4894.11,380.288L4796.56,379.403C4814.69,385.327 4825.55,397.012 4827.39,415.847L4824.24,611.79Z"/>
            </g>
        </g>
        <g transform="matrix(1.01156,0,0,0.880943,-59.3288,56.379)">
            <g transform="matrix(0.988569,0,0,1.13515,58.6506,-63.9985)">
                <path d="M4541.09,355.53C4555.98,354.6 4560.82,330.755 4561.37,331.031C4582.34,274.778 4603.29,222.583 4625.5,167.8C4627.2,151.237 4612.15,134.334 4591.66,128.207L4712.99,129.535L4713.41,173.959C4732.01,242.475 4741.76,300.216 4781.38,349.559L4700.48,350.576L4700.35,315.299C4700.88,306.996 4697.95,302.88 4690.59,304.163L4621.49,304.163C4612.85,303.58 4607.73,307.496 4608.91,316.098L4609.31,355.183L4541.09,355.53ZM4627.31,266.823L4685.27,266.328C4679.69,239.205 4674.82,211.652 4660.4,186.426C4647.34,209.474 4637.4,236.263 4627.31,266.823Z" style="fill:rgb(241,233,210);"/>
                <path d="M4549.66,326.653C4570.43,270.951 4591.18,219.218 4613.13,165.029C4613.09,160.52 4610.79,156.134 4607.45,152.27C4602.77,146.864 4595.92,142.529 4588.08,140.184C4582.11,138.399 4578.36,132.49 4579.3,126.33C4580.23,120.17 4585.56,115.64 4591.79,115.708L4713.13,117.036C4719.93,117.111 4725.43,122.614 4725.49,129.418C4725.49,129.418 4725.89,172.24 4725.89,172.238C4743.71,238.228 4752.88,294.095 4791.12,341.734C4794.11,345.462 4794.72,350.571 4792.68,354.894C4790.64,359.217 4786.31,361.998 4781.53,362.058L4700.64,363.075C4697.31,363.117 4694.1,361.825 4691.72,359.487C4689.34,357.148 4688,353.957 4687.98,350.622L4687.86,316.663L4621.49,316.663C4621.47,316.663 4621.44,316.663 4621.42,316.663L4621.81,355.057C4621.84,358.383 4620.55,361.585 4618.21,363.955C4615.88,366.324 4612.7,367.666 4609.37,367.683L4541.15,368.03C4534.39,368.064 4528.82,362.712 4528.6,355.952C4528.37,349.191 4533.56,343.476 4540.31,343.054C4542.71,342.904 4543.68,340.287 4544.81,338.345C4547.45,333.809 4548.75,328.943 4549.3,327.405L4549.66,326.653ZM4556.71,342.631C4556.38,342.497 4556.05,342.348 4555.72,342.185C4556.05,342.349 4556.38,342.499 4556.7,342.636C4553.57,348.739 4548.61,355.06 4541.09,355.53L4609.31,355.183L4608.91,316.098C4607.73,307.496 4612.85,303.58 4621.49,304.163L4690.59,304.163C4697.95,302.88 4700.88,306.996 4700.35,315.299L4700.48,350.576L4781.38,349.559C4741.76,300.216 4732.01,242.475 4713.41,173.959L4712.99,129.535L4591.66,128.207C4612.15,134.334 4627.2,151.237 4625.5,167.8C4603.29,222.583 4582.34,274.778 4561.37,331.031C4561.1,330.895 4559.78,336.658 4556.71,342.631ZM4627.31,266.823C4637.4,236.263 4647.34,209.474 4660.4,186.426C4674.82,211.652 4679.69,239.205 4685.27,266.328L4627.31,266.823ZM4644.78,254.173L4670,253.958C4667.32,240.961 4664.37,227.977 4659.87,215.354C4654.48,227.426 4649.58,240.366 4644.78,254.173Z"/>
            </g>
            <g>
                <g transform="matrix(0.988569,0,0,1.13515,58.6506,-63.9985)">
                    <path d="M4540.63,343.032C4542.61,342.762 4543.5,340.502 4544.52,338.83C4547.34,334.232 4548.7,329.111 4549.27,327.487L4549.65,326.664C4570.43,270.958 4591.17,219.222 4613.13,165.029C4613.09,160.52 4610.79,156.134 4607.45,152.27C4602.77,146.864 4595.92,142.529 4588.08,140.184C4582.11,138.399 4578.36,132.49 4579.3,126.33C4580.23,120.17 4585.56,115.64 4591.79,115.708L4713.13,117.036C4719.93,117.111 4725.43,122.614 4725.49,129.418C4725.49,129.418 4725.89,172.24 4725.89,172.238C4743.71,238.228 4752.88,294.095 4791.12,341.734C4794.11,345.462 4794.72,350.571 4792.68,354.894C4790.64,359.217 4786.31,361.998 4781.53,362.058L4700.64,363.075C4697.31,363.117 4694.1,361.825 4691.72,359.487C4689.34,357.148 4688,353.957 4687.98,350.622L4687.86,316.663L4621.49,316.663C4621.47,316.663 4621.44,316.663 4621.42,316.663L4621.81,355.057C4621.84,358.383 4620.55,361.585 4618.21,363.955C4615.88,366.324 4612.7,367.666 4609.37,367.683L4541.59,368.028C4540.67,368.072 4539.74,368.071 4538.79,368.022C4532.03,367.678 4526.78,362.018 4526.93,355.252C4527.09,348.487 4532.6,343.073 4539.36,343.039L4540.63,343.032ZM4541.09,355.53L4539.43,355.538C4539.99,355.567 4540.55,355.564 4541.09,355.53ZM4541.09,355.53L4609.31,355.183L4608.91,316.098C4607.73,307.496 4612.85,303.58 4621.49,304.163L4690.59,304.163C4697.95,302.88 4700.88,306.996 4700.35,315.299L4700.48,350.576L4781.38,349.559C4741.76,300.216 4732.01,242.475 4713.41,173.959L4712.99,129.535L4591.66,128.207C4612.15,134.334 4627.2,151.237 4625.5,167.8C4603.29,222.583 4582.34,274.778 4561.37,331.031C4561.1,330.895 4559.78,336.658 4556.71,342.631C4556.38,342.497 4556.05,342.348 4555.72,342.185C4556.05,342.349 4556.38,342.5 4556.7,342.636C4553.57,348.739 4548.61,355.06 4541.09,355.53Z"/>
                </g>
                <g transform="matrix(0.988569,0,0,1.13515,58.6506,-63.9985)">
                    <path d="M4615.44,262.903C4625.81,231.481 4636.1,203.96 4649.53,180.262C4651.74,176.353 4655.89,173.934 4660.38,173.926C4664.87,173.918 4669.02,176.322 4671.25,180.223C4686.35,206.634 4691.67,235.412 4697.51,263.809C4698.27,267.471 4697.34,271.277 4694.99,274.185C4692.64,277.092 4689.11,278.796 4685.38,278.828L4627.41,279.323C4623.38,279.357 4619.58,277.446 4617.21,274.189C4614.83,270.932 4614.17,266.73 4615.44,262.903ZM4627.31,266.823L4685.27,266.328C4679.69,239.205 4674.82,211.652 4660.4,186.426C4647.34,209.474 4637.4,236.263 4627.31,266.823Z"/>
                </g>
            </g>
        </g>
        <g transform="matrix(1.01156,0,0,0.880943,-59.3288,56.379)">
            <g transform="matrix(0.988569,0,0,1.13515,58.6506,-63.9985)">
                <path d="M5048.95,382.53C5063.48,385.497 5154.9,380.922 5194.68,385.896C5242.09,391.823 5267.59,443.303 5271.99,467.547C5277.61,498.518 5269.87,518.902 5271.71,518.482C5266.14,549.139 5242.65,609.445 5197,617.001C5145.48,625.528 5043.73,626.055 5043.73,626.055C5054.78,615.453 5067.41,601.792 5069.17,587.319L5071.52,410.985C5070.07,396.886 5062.71,389.259 5048.95,382.53ZM5127.04,577.275C5127.04,577.275 5160.43,580.432 5170.02,574.738C5184.71,566.016 5204.38,543.615 5207.62,526.831C5209.45,517.402 5210.05,500.581 5208.02,482.478C5205.87,463.35 5183.22,430.944 5165.17,428.654C5150.28,426.764 5127.99,428.508 5127.99,428.508L5127.04,577.275Z" style="fill:rgb(241,233,210);"/>
                <path d="M5284.12,516.956C5284.27,518.192 5284.24,519.46 5284.01,520.718C5280.4,540.567 5269.78,571.909 5251.26,595.587C5237.87,612.714 5220.42,625.795 5199.04,629.334C5146.86,637.971 5043.79,638.555 5043.79,638.555C5038.68,638.581 5034.06,635.489 5032.14,630.747C5030.22,626.006 5031.38,620.574 5035.07,617.033C5043.99,608.482 5054.94,598.037 5056.68,586.401C5056.68,586.401 5059.01,411.613 5059.01,411.609C5057.86,402.644 5052.41,398.141 5043.46,393.759C5037.8,390.994 5035.09,384.458 5037.12,378.501C5039.15,372.544 5045.28,369.024 5051.45,370.283C5065.88,373.231 5156.71,368.551 5196.23,373.493C5249.87,380.199 5279.31,437.884 5284.29,465.315C5288.9,490.711 5285.3,509.529 5284.12,516.956ZM5273.12,506.061C5275.08,506.283 5276.98,506.97 5278.64,508.076C5277.02,506.89 5275.19,506.156 5273.13,505.97C5274.21,497.026 5274.93,483.732 5271.99,467.547C5267.59,443.303 5242.09,391.823 5194.68,385.896C5154.9,380.922 5063.48,385.497 5048.95,382.53C5062.71,389.259 5070.07,396.886 5071.52,410.985L5069.17,587.319C5067.41,601.792 5054.78,615.453 5043.73,626.055C5043.73,626.055 5145.48,625.528 5197,617.001C5242.65,609.445 5266.14,549.139 5271.71,518.482C5270.84,518.682 5272.13,514.175 5273.12,506.061ZM5127.04,577.275L5127.99,428.508C5127.99,428.508 5150.28,426.764 5165.17,428.654C5183.22,430.944 5205.87,463.35 5208.02,482.478C5210.05,500.581 5209.45,517.402 5207.62,526.831C5204.38,543.615 5184.71,566.016 5170.02,574.738C5160.43,580.432 5127.04,577.275 5127.04,577.275ZM5139.62,565.524C5142.95,565.642 5146.69,565.697 5150.4,565.595C5155.71,565.45 5161.02,565.541 5163.64,563.989C5175.86,556.731 5192.65,538.423 5195.35,524.456C5197.02,515.829 5197.45,500.436 5195.59,483.873C5194.53,474.383 5186.98,461.143 5178.19,451.499C5173.4,446.238 5168.48,441.674 5163.6,441.054C5156.44,440.146 5147.44,440.153 5140.41,440.372L5139.62,565.524Z"/>
            </g>
            <g>
                <g transform="matrix(0.988569,0,0,1.13515,58.6506,-63.9985)">
                    <path d="M5043.91,393.981L5042.87,393.714L5038.58,390.978L5035.74,387.088L5034.57,383.007C5034.06,378.516 5036.01,374.101 5039.68,371.458C5043.35,368.815 5048.15,368.356 5052.25,370.258C5052.4,370.326 5052.54,370.394 5052.69,370.462C5071.99,372.794 5158,368.712 5196.23,373.493C5249.87,380.199 5279.31,437.884 5284.29,465.315C5288.9,490.711 5285.3,509.529 5284.12,516.956C5284.27,518.192 5284.24,519.46 5284.01,520.718C5280.4,540.567 5269.78,571.909 5251.26,595.587C5237.87,612.714 5220.42,625.795 5199.04,629.334C5146.86,637.971 5043.79,638.555 5043.79,638.555C5038.68,638.581 5034.06,635.489 5032.14,630.747C5030.22,626.006 5031.38,620.574 5035.07,617.033C5043.99,608.482 5054.94,598.037 5056.68,586.401C5056.68,586.401 5059.01,411.613 5059.01,411.607C5057.88,402.768 5052.59,398.264 5043.91,393.981ZM5048.95,382.53C5048.31,382.217 5047.66,381.907 5046.99,381.597C5047.03,381.97 5047.71,382.277 5048.95,382.53ZM5273.12,506.061C5275.08,506.283 5276.98,506.97 5278.64,508.076C5277.02,506.89 5275.19,506.156 5273.13,505.97C5274.21,497.026 5274.93,483.732 5271.99,467.547C5267.59,443.303 5242.09,391.823 5194.68,385.896C5154.9,380.922 5063.48,385.497 5048.95,382.53C5062.71,389.259 5070.07,396.886 5071.52,410.985L5069.17,587.319C5067.41,601.792 5054.78,615.453 5043.73,626.055C5043.73,626.055 5145.48,625.528 5197,617.001C5242.65,609.445 5266.14,549.139 5271.71,518.482C5270.84,518.682 5272.13,514.175 5273.12,506.061Z"/>
                </g>
                <g transform="matrix(0.988569,0,0,1.13515,58.6506,-63.9985)">
                    <path d="M5114.55,577.196L5115.49,428.429C5115.53,421.934 5120.54,416.553 5127.01,416.046C5127.01,416.046 5150.83,414.234 5166.74,416.253C5176.31,417.466 5187.29,424.362 5196.67,434.661C5209.14,448.346 5218.93,467.618 5220.44,481.084C5222.64,500.725 5221.88,518.976 5219.9,529.206C5216.1,548.808 5193.56,575.301 5176.4,585.487C5172.35,587.893 5165.39,589.64 5157.48,590.259C5143.42,591.359 5125.87,589.719 5125.87,589.719C5119.42,589.11 5114.5,583.674 5114.55,577.196ZM5127.04,577.275C5127.04,577.275 5160.43,580.432 5170.02,574.738C5184.71,566.016 5204.38,543.615 5207.62,526.831C5209.45,517.402 5210.05,500.581 5208.02,482.478C5205.87,463.35 5183.22,430.944 5165.17,428.654C5150.28,426.764 5127.99,428.508 5127.99,428.508L5127.04,577.275Z"/>
                </g>
            </g>
        </g>
        <g transform="matrix(1.01156,0,0,0.880943,-59.3288,56.379)">
            <g transform="matrix(1.14592,0,0,1.14592,-670.873,267.655)">
                <g transform="matrix(0.862689,0,0,0.990603,625.095,-294.159)">
                    <path d="M4547.1,639.751C4564.16,638.686 4569.71,611.362 4570.34,611.678C4594.37,547.217 4618.38,487.405 4643.83,424.629C4645.78,405.649 4628.53,386.279 4605.05,379.259L4744.09,380.781L4744.57,431.687C4765.88,510.2 4777.06,576.366 4822.45,632.91L4729.76,634.075L4729.61,593.65C4730.2,584.136 4726.86,579.419 4718.42,580.889L4639.24,580.889C4629.34,580.221 4623.47,584.709 4624.82,594.565L4625.28,639.354L4547.1,639.751Z"/>
                    <clipPath id="_clip1">
                        <path d="M4547.1,639.751C4564.16,638.686 4569.71,611.362 4570.34,611.678C4594.37,547.217 4618.38,487.405 4643.83,424.629C4645.78,405.649 4628.53,386.279 4605.05,379.259L4744.09,380.781L4744.57,431.687C4765.88,510.2 4777.06,576.366 4822.45,632.91L4729.76,634.075L4729.61,593.65C4730.2,584.136 4726.86,579.419 4718.42,580.889L4639.24,580.889C4629.34,580.221 4623.47,584.709 4624.82,594.565L4625.28,639.354L4547.1,639.751Z"/>
                    </clipPath>
                    <g clip-path="url(#_clip1)">
                        <g transform="matrix(1,0,0,1,13.3698,4.78169)">
                            <path d="M4533.73,634.97C4550.79,633.904 4556.35,606.58 4556.97,606.896C4581,542.435 4605.01,482.624 4630.46,419.847C4632.41,400.868 4615.16,381.497 4591.68,374.477L4730.72,375.999L4731.2,426.905C4752.51,505.418 4763.69,571.584 4809.08,628.128L4716.39,629.293L4716.24,588.868C4716.83,579.354 4713.49,574.638 4705.05,576.107L4625.87,576.107C4615.97,575.439 4610.1,579.927 4611.45,589.784L4611.91,634.572L4533.73,634.97ZM4632.53,533.319L4698.95,532.752C4692.56,501.671 4686.98,470.097 4670.45,441.191C4655.49,467.601 4644.1,498.3 4632.53,533.319Z" style="fill:rgb(241,233,210);"/>
                        </g>
                    </g>
                    <path d="M4558.65,607.263C4582.48,543.352 4606.28,484.002 4631.48,421.816C4631.52,417.514 4629.91,413.262 4627.34,409.344C4621.99,401.199 4612.55,394.549 4601.47,391.235C4595.5,389.45 4591.75,383.542 4592.69,377.382C4593.62,371.222 4598.95,366.691 4605.19,366.759L4744.23,368.281C4751.03,368.356 4756.53,373.859 4756.59,380.663C4756.59,380.663 4757.05,429.966 4757.05,429.966C4777.59,505.953 4788.18,570.245 4832.2,625.084C4835.19,628.812 4835.79,633.921 4833.75,638.244C4831.71,642.567 4827.39,645.348 4822.61,645.409L4729.91,646.574C4726.58,646.615 4723.37,645.324 4720.99,642.985C4718.61,640.646 4717.27,637.455 4717.26,634.121L4717.11,593.696C4717.11,593.594 4717.11,593.491 4717.11,593.389L4639.24,593.389C4638.96,593.389 4638.68,593.38 4638.4,593.361C4638.06,593.338 4637.66,593.344 4637.26,593.364C4637.3,593.721 4637.32,594.08 4637.32,594.439L4637.78,639.227C4637.81,642.553 4636.52,645.756 4634.18,648.125C4631.85,650.495 4628.66,651.837 4625.34,651.854L4547.17,652.251C4540.4,652.286 4534.84,646.933 4534.61,640.173C4534.38,633.413 4539.57,627.697 4546.32,627.276C4549.7,627.065 4551.35,623.702 4552.94,620.977C4556.05,615.651 4557.58,609.944 4558.23,608.138L4558.65,607.263ZM4565.81,623.328C4565.43,623.182 4565.06,623.016 4564.69,622.831C4565.06,623.017 4565.43,623.185 4565.81,623.334C4562.28,630.789 4556.4,639.171 4547.1,639.751L4625.28,639.354L4624.82,594.565C4623.47,584.709 4629.34,580.221 4639.24,580.889L4718.42,580.889C4726.86,579.419 4730.2,584.136 4729.61,593.65L4729.76,634.075L4822.45,632.91C4777.06,576.366 4765.88,510.2 4744.57,431.687L4744.09,380.781L4605.05,379.259C4628.53,386.279 4645.78,405.649 4643.83,424.629C4618.38,487.405 4594.37,547.217 4570.34,611.678C4570.06,611.534 4568.75,617.108 4565.81,623.328Z"/>
                </g>
                <g transform="matrix(0.988569,0,0,1.13515,58.6506,-63.9985)">
                    <path d="M4540.69,344.624C4543.23,344.336 4544.59,341.765 4545.88,339.661C4548.77,334.94 4550.18,329.687 4550.77,328.02L4551.16,327.182C4571.96,271.408 4592.73,219.614 4614.72,165.345C4614.76,161.591 4613.35,157.881 4611.11,154.462C4606.44,147.354 4598.2,141.551 4588.53,138.659C4583.32,137.101 4580.06,131.945 4580.87,126.569C4581.69,121.194 4586.34,117.24 4591.78,117.3L4713.11,118.628C4719.05,118.693 4723.85,123.495 4723.9,129.433C4723.9,129.433 4724.31,172.458 4724.31,172.458C4742.23,238.769 4751.46,294.874 4789.88,342.731C4792.49,345.984 4793.02,350.442 4791.24,354.215C4789.46,357.987 4785.68,360.414 4781.51,360.467L4700.62,361.484C4697.71,361.52 4694.91,360.393 4692.83,358.352C4690.76,356.311 4689.59,353.526 4689.58,350.616L4689.45,315.339C4689.44,315.25 4689.45,315.16 4689.45,315.071L4621.49,315.071C4621.25,315.071 4621,315.063 4620.76,315.046C4620.46,315.027 4620.11,315.032 4619.77,315.049C4619.8,315.361 4619.82,315.674 4619.82,315.987L4620.22,355.073C4620.24,357.975 4619.12,360.77 4617.08,362.838C4615.04,364.906 4612.27,366.077 4609.36,366.091L4541.53,366.436C4540.66,366.479 4539.78,366.479 4538.87,366.433C4532.98,366.132 4528.39,361.193 4528.52,355.289C4528.66,349.385 4533.47,344.66 4539.37,344.63L4540.69,344.624ZM4541.09,355.53L4539.43,355.538C4539.99,355.567 4540.55,355.564 4541.09,355.53ZM4541.09,355.53L4609.31,355.183L4608.91,316.098C4607.73,307.496 4612.85,303.58 4621.49,304.163L4690.59,304.163C4697.95,302.88 4700.88,306.996 4700.35,315.299L4700.48,350.576L4781.38,349.559C4741.76,300.216 4732.01,242.475 4713.41,173.959L4712.99,129.535L4591.66,128.207C4612.15,134.334 4627.2,151.237 4625.5,167.8C4603.29,222.583 4582.34,274.778 4561.37,331.031C4561.12,330.906 4559.98,335.77 4557.41,341.198C4557.08,341.07 4556.76,340.925 4556.44,340.764C4556.76,340.926 4557.09,341.073 4557.41,341.204C4554.33,347.71 4549.2,355.023 4541.09,355.53Z"/>
                </g>
                <g transform="matrix(0.988569,0,0,1.13515,58.6506,-63.9985)">
                    <path d="M4616.95,263.402C4627.29,232.09 4637.53,204.662 4650.91,181.047C4652.85,177.636 4656.46,175.525 4660.38,175.518C4664.3,175.51 4667.93,177.608 4669.87,181.013C4684.88,207.273 4690.14,235.895 4695.95,264.13C4696.61,267.325 4695.8,270.647 4693.75,273.184C4691.7,275.722 4688.62,277.208 4685.36,277.236L4627.4,277.731C4623.88,277.761 4620.57,276.093 4618.49,273.251C4616.42,270.409 4615.84,266.742 4616.95,263.402ZM4627.31,266.823L4685.27,266.328C4679.69,239.205 4674.82,211.652 4660.4,186.426C4647.34,209.474 4637.4,236.263 4627.31,266.823Z"/>
                </g>
            </g>
        </g>
        <g transform="matrix(1.01156,0,0,0.880943,-59.3288,56.379)">
            <g transform="matrix(1,0,0,1,-13.8397,121.32)">
                <g transform="matrix(0.988569,0,0,1.13515,58.6506,-63.9985)">
                    <path d="M5526.13,265.872C5543.12,264.786 5548.65,236.929 5549.27,237.252C5573.21,171.534 5597.12,110.558 5622.46,46.558C5624.41,27.209 5607.23,7.461 5583.84,0.304L5722.32,1.855L5722.8,53.753C5744.02,133.796 5755.15,201.251 5800.36,258.897L5708.04,260.085L5707.89,218.872C5708.49,209.173 5705.15,204.365 5696.75,205.863L5617.89,205.863C5608.03,205.181 5602.19,209.757 5603.53,219.806L5603.99,265.467L5526.13,265.872ZM5624.53,162.241L5690.68,161.663C5684.31,129.976 5678.75,97.787 5662.3,68.317C5647.39,95.243 5636.05,126.539 5624.53,162.241Z" style="fill:rgb(241,233,210);"/>
                    <path d="M5537.55,232.918C5561.29,167.732 5585.01,107.201 5610.12,43.77C5610.46,30.052 5596.85,17.356 5580.18,12.256C5574.24,10.437 5570.53,4.527 5571.49,-1.615C5572.44,-7.757 5577.77,-12.265 5583.98,-12.196L5722.46,-10.644C5729.26,-10.568 5734.76,-5.063 5734.82,1.741C5734.82,1.741 5735.28,52.071 5735.28,52.071C5755.76,129.62 5766.31,195.221 5810.2,251.183C5813.13,254.924 5813.69,260.006 5811.64,264.294C5809.58,268.582 5805.28,271.335 5800.52,271.396L5708.2,272.584C5704.87,272.627 5701.65,271.335 5699.28,268.996C5696.9,266.657 5695.56,263.465 5695.54,260.13L5695.39,218.917C5695.39,218.732 5695.4,218.548 5695.4,218.363L5617.89,218.363C5617.6,218.363 5617.32,218.353 5617.03,218.333C5616.71,218.311 5616.32,218.316 5615.95,218.335C5616,218.782 5616.03,219.232 5616.03,219.682L5616.49,265.343C5616.52,268.669 5615.23,271.87 5612.89,274.239C5610.56,276.608 5607.38,277.95 5604.05,277.967L5526.2,278.372C5519.44,278.407 5513.87,273.061 5513.64,266.304C5513.4,259.547 5518.59,253.829 5525.33,253.398C5528.68,253.184 5530.26,249.734 5531.84,246.964C5534.95,241.508 5536.49,235.662 5537.14,233.812L5537.55,232.918ZM5544.85,248.942C5544.4,248.772 5543.96,248.575 5543.52,248.351C5543.96,248.576 5544.4,248.777 5544.84,248.951C5541.34,256.597 5535.47,265.275 5526.13,265.872L5603.99,265.467L5603.53,219.806C5602.19,209.757 5608.03,205.181 5617.89,205.863L5696.75,205.863C5705.15,204.365 5708.49,209.173 5707.89,218.872L5708.04,260.085L5800.36,258.897C5755.15,201.251 5744.02,133.796 5722.8,53.753L5722.32,1.855L5583.84,0.304C5607.23,7.461 5624.41,27.209 5622.46,46.558C5597.12,110.558 5573.21,171.534 5549.27,237.252C5548.99,237.106 5547.72,242.676 5544.85,248.942ZM5624.53,162.241C5636.05,126.539 5647.39,95.243 5662.3,68.317C5678.75,97.787 5684.31,129.976 5690.68,161.663L5624.53,162.241ZM5641.85,149.589L5675.48,149.295C5671.97,131.751 5668.17,114.198 5661.85,97.25C5654.62,113.346 5648.18,130.793 5641.85,149.589Z"/>
                </g>
                <g transform="matrix(1.14126,0,0,1.16824,331.342,-158.907)">
                    <g transform="matrix(0.988569,0,0,1.13515,58.6506,-63.9985)">
                        <path d="M4540.69,344.832C4543.2,344.542 4544.5,341.954 4545.78,339.865C4548.69,335.118 4550.11,329.84 4550.7,328.163L4551.09,327.324C4571.9,271.525 4592.68,219.71 4614.68,165.414C4614.98,153.671 4603.05,142.804 4588.45,138.439C4583.24,136.882 4580,131.823 4580.83,126.565C4581.67,121.307 4586.33,117.449 4591.78,117.508L4713.12,118.836C4719.08,118.902 4723.89,123.613 4723.94,129.437C4723.94,129.437 4724.35,172.519 4724.35,172.519C4742.29,238.9 4751.54,295.053 4789.99,342.957C4792.56,346.159 4793.05,350.509 4791.25,354.179C4789.45,357.85 4785.68,360.206 4781.52,360.258L4700.62,361.275C4697.7,361.312 4694.89,360.206 4692.8,358.204C4690.72,356.202 4689.54,353.47 4689.53,350.615L4689.4,315.337C4689.4,315.179 4689.4,315.021 4689.41,314.863L4621.49,314.863C4621.24,314.863 4620.99,314.854 4620.74,314.837C4620.45,314.818 4620.12,314.823 4619.79,314.839C4619.84,315.221 4619.86,315.606 4619.86,315.992L4620.26,355.077C4620.29,357.924 4619.15,360.664 4617.11,362.692C4615.07,364.72 4612.28,365.868 4609.36,365.883L4541.53,366.228C4540.66,366.271 4539.77,366.27 4538.86,366.224C4532.94,365.922 4528.34,361.076 4528.48,355.288C4528.62,349.499 4533.44,344.869 4539.37,344.839L4540.69,344.832ZM4541.09,355.53L4539.43,355.538C4539.99,355.567 4540.55,355.564 4541.09,355.53ZM4541.09,355.53L4609.31,355.183L4608.91,316.098C4607.73,307.496 4612.85,303.58 4621.49,304.163L4690.59,304.163C4697.95,302.88 4700.88,306.996 4700.35,315.299L4700.48,350.576L4781.38,349.559C4741.76,300.216 4732.01,242.475 4713.41,173.959L4712.99,129.535L4591.66,128.207C4612.15,134.334 4627.2,151.237 4625.5,167.8C4603.29,222.583 4582.34,274.778 4561.37,331.031C4561.12,330.907 4560,335.675 4557.49,341.038C4557.1,340.892 4556.71,340.724 4556.33,340.532C4556.71,340.725 4557.1,340.897 4557.48,341.046C4554.42,347.591 4549.27,355.019 4541.09,355.53Z"/>
                    </g>
                    <g transform="matrix(0.988569,0,0,1.13515,58.6506,-63.9985)">
                        <path d="M4616.88,263.538C4627.22,232.249 4637.44,204.841 4650.82,181.243C4652.74,177.845 4656.4,175.733 4660.38,175.726C4664.36,175.719 4668.03,177.818 4669.96,181.209C4684.95,207.435 4690.2,236.022 4696.01,264.22C4696.65,267.348 4695.83,270.594 4693.77,273.072C4691.71,275.549 4688.63,277 4685.36,277.028L4627.4,277.523C4623.88,277.553 4620.56,275.929 4618.48,273.159C4616.4,270.389 4615.8,266.809 4616.88,263.538ZM4627.31,266.823L4685.27,266.328C4679.69,239.205 4674.82,211.652 4660.4,186.426C4647.34,209.474 4637.4,236.263 4627.31,266.823Z"/>
                    </g>
                </g>
            </g>
        </g>
        <g transform="matrix(1.01156,0,0,0.880943,-59.3288,56.379)">
            <g transform="matrix(1,0,0,1,2.14436,140.365)">
                <g transform="matrix(0.988569,0,0,1.13515,58.6506,-63.9985)">
                    <path d="M4306.58,254.602C4315.5,254.083 4318.51,248.477 4318.36,240.921L4319.74,-0.286C4321.09,-18.436 4316.49,-19.81 4302.29,-20.595L4451.95,-22.326C4531.42,-18.734 4566.98,45.604 4499.15,113.666C4553.42,133.727 4555.23,234.481 4481.62,252.591C4441.95,262.348 4335.73,255.013 4306.58,254.602ZM4389.07,160.197L4388.29,224.259C4431.57,219.582 4456.86,213.441 4460.07,187.008C4462.42,168.223 4442.49,157.458 4389.07,160.197ZM4389.07,24.089L4388.29,126.649C4431.57,119.16 4456.86,109.328 4460.07,67.011C4462.42,36.937 4442.49,19.703 4389.07,24.089Z" style="fill:rgb(241,233,210);"/>
                    <path d="M4305.82,242.126C4305.85,241.794 4305.87,241.445 4305.86,241.171C4305.86,241.064 4305.86,240.957 4305.86,240.849L4307.24,-0.357C4307.24,-0.643 4307.25,-0.928 4307.27,-1.213C4307.44,-3.474 4307.37,-5.93 4307.28,-7.544C4305.73,-7.744 4303.44,-8.012 4301.6,-8.114C4294.87,-8.486 4289.65,-14.128 4289.79,-20.868C4289.94,-27.607 4295.41,-33.016 4302.15,-33.094L4451.81,-34.825C4452.04,-34.828 4452.28,-34.824 4452.51,-34.813C4498.14,-32.751 4530.46,-12.03 4542.34,16.721C4552.91,42.301 4548.05,75.723 4519.15,110.305C4536.05,122.519 4546.77,142.35 4549.99,164.193C4556.01,205.006 4535.98,252.091 4484.6,264.729C4444.22,274.663 4336.08,267.519 4306.4,267.101C4299.68,267.006 4294.23,261.604 4294.08,254.878C4293.93,248.164 4299.12,242.535 4305.82,242.126ZM4306.58,254.602C4335.73,255.013 4441.95,262.348 4481.62,252.591C4555.23,234.481 4553.42,133.727 4499.15,113.666C4566.98,45.604 4531.42,-18.734 4451.95,-22.326L4302.29,-20.595C4316.49,-19.81 4321.09,-18.436 4319.74,-0.286L4318.36,240.921C4318.51,248.477 4315.5,254.083 4306.58,254.602ZM4389.07,160.197C4442.49,157.458 4462.42,168.223 4460.07,187.008C4456.86,213.441 4431.57,219.582 4388.29,224.259L4389.07,160.197ZM4401.42,172.278C4401.42,172.278 4400.97,210.177 4400.96,210.177C4414.51,208.385 4425.64,206.164 4434.11,202.38C4441.84,198.921 4446.64,193.928 4447.66,185.501C4447.66,185.486 4447.67,185.472 4447.67,185.457C4448.16,181.519 4445.48,179.053 4440.71,177.083C4432.2,173.565 4419.33,172.004 4401.42,172.278ZM4389.07,24.089C4442.49,19.703 4462.42,36.937 4460.07,67.011C4456.86,109.328 4431.57,119.16 4388.29,126.649L4389.07,24.089ZM4401.48,35.935C4401.48,35.935 4400.91,111.56 4400.91,111.56C4416.47,108.272 4428.67,104.045 4436.85,95.49C4443.22,88.819 4446.6,79.411 4447.61,66.065C4447.61,66.056 4447.61,66.047 4447.61,66.038C4448.1,59.759 4447.46,54.239 4444.95,49.734C4442.14,44.689 4436.98,41.258 4429.65,38.997C4422.2,36.697 4412.86,35.686 4401.48,35.935Z"/>
                </g>
                <g id="B" transform="matrix(1,0,0,1,-8.3749,-163.902)">
                    <g id="B1" serif:id="B" transform="matrix(0.988569,0,0,1.13515,58.6506,-63.9985)">
                        <path d="M4315.41,411.492C4314.08,411.554 4312.66,411.544 4311.18,411.453C4304.45,411.045 4299.26,405.381 4299.44,398.647C4299.62,391.913 4305.1,386.53 4311.84,386.477C4312.5,386.471 4313.24,386.473 4314.05,386.482C4314.13,386.476 4314.21,386.47 4314.29,386.464C4314.32,386.149 4314.34,385.822 4314.34,385.559C4314.33,385.452 4314.33,385.345 4314.33,385.238L4315.71,144.031C4315.71,143.746 4315.72,143.46 4315.74,143.176C4315.91,140.914 4315.84,138.458 4315.75,136.845C4314.2,136.645 4311.91,136.376 4310.07,136.274C4303.34,135.902 4298.12,130.26 4298.27,123.521C4298.41,116.781 4303.88,111.372 4310.62,111.294L4460.28,109.563C4460.51,109.561 4460.75,109.565 4460.99,109.575C4506.61,111.637 4538.94,132.358 4550.81,161.109C4561.38,186.689 4556.53,220.111 4527.62,254.694C4544.53,266.908 4555.24,286.738 4558.46,308.582C4564.48,349.394 4544.45,396.479 4493.07,409.117C4452.86,419.009 4345.34,411.917 4315.41,411.492ZM4315.05,398.991C4313.89,398.974 4312.84,398.969 4311.94,398.976C4313.05,399.044 4314.08,399.047 4315.05,398.991ZM4315.05,398.991C4344.2,399.402 4450.42,406.737 4490.09,396.979C4563.71,378.87 4561.89,278.116 4507.62,258.054C4575.46,189.992 4539.89,125.654 4460.42,122.062L4310.76,123.794C4324.96,124.578 4329.56,125.953 4328.21,144.102L4326.83,385.309C4326.98,392.865 4323.97,398.471 4315.05,398.991Z"/>
                    </g>
                    <g transform="matrix(0.900981,0,0,1.16755,446.523,-71.4036)">
                        <path d="M4393.42,158.031C4434.51,155.042 4459.74,162.469 4473.02,175.008C4483.1,184.522 4487.49,197.268 4486.13,212.794C4484.42,232.735 4477.55,246.392 4466.79,256.359C4451.81,270.249 4428.1,276.914 4396.03,281.832C4392.03,282.446 4387.92,281.454 4384.82,279.125C4381.72,276.795 4379.95,273.367 4379.98,269.765L4380.83,170.052C4380.88,163.761 4386.35,158.546 4393.42,158.031ZM4394.54,170.143L4393.69,269.857C4441.17,262.576 4468.93,253.017 4472.45,211.874C4475.03,182.635 4453.16,165.879 4394.54,170.143Z"/>
                    </g>
                    <g transform="matrix(0.900981,0,0,0.72929,446.523,157.667)">
                        <path d="M4393.84,150.713C4425.98,148.374 4448,152.446 4461.68,160.463C4481.42,172.031 4488.09,191.123 4486.06,214.252C4483.66,242.261 4473.29,259.828 4455.15,271.326C4440.84,280.4 4420.68,285.288 4395.17,289.2C4391.27,289.799 4387.37,287.999 4384.47,284.256C4381.57,280.514 4379.93,275.186 4379.98,269.622L4380.83,169.908C4380.92,159.642 4386.61,151.238 4393.84,150.713ZM4394.54,170.143L4393.69,269.857C4441.17,262.576 4468.93,253.017 4472.45,211.874C4475.03,182.635 4453.16,165.879 4394.54,170.143Z"/>
                    </g>
                </g>
            </g>
        </g>
        <g transform="matrix(1.01156,0,0,0.880943,-59.3288,56.379)">
            <g transform="matrix(0.936297,0,0,0.830823,275.902,116.617)">
                <g transform="matrix(1.05583,0,0,1.36533,-232.033,-216.727)">
                    <path d="M4287.68,692.754C4301.92,679.909 4310.9,663.975 4316.5,646.066L4321.66,539.153C4338.9,579.465 4357.33,617.922 4399.82,631.441L4428.38,630.954C4452.33,620.398 4465.75,605.871 4468.69,587.391L4469.38,563.677C4460.12,544.862 4445.56,530.122 4415.44,507.851C4417.04,508.69 4337.63,459.532 4323.52,437.161C4312.5,419.69 4323.57,358.952 4323.57,358.952C4344.33,330.525 4383.61,333.352 4420.95,332.327C4420.95,332.327 4473.94,329.646 4491.6,334.155C4506.12,337.862 4526.48,350.153 4526.93,359.377C4527.23,365.322 4531.32,377.332 4530.99,382.665C4530.07,397.435 4491.6,429.015 4467.56,438.996C4475.8,424.654 4474.79,414.003 4476,400.985C4475.08,385.789 4464.65,386.486 4449.41,380.552L4413.14,380.787C4395.45,381.762 4386.79,381.486 4385.2,393.014C4384.3,399.551 4487.77,476.303 4487.77,476.303C4515.91,496.299 4532.51,520.803 4541.3,548.356C4541.3,548.356 4543.17,577.281 4542.14,591.119C4540.19,617.249 4490.62,668.048 4434.16,671.437L4327.15,672.423C4308.02,677.418 4300.26,684.493 4287.68,692.754Z" style="fill:rgb(241,233,210);"/>
                    <path d="M4408.2,518.049C4407.91,517.865 4407.41,517.544 4406.91,517.224C4398.49,511.848 4363.3,489.377 4338.51,469.365C4326.72,459.855 4317.25,450.649 4312.95,443.839C4308.77,437.205 4306.46,425.776 4306.17,412.839C4305.62,387.87 4311.27,356.708 4311.27,356.708C4311.61,354.851 4312.36,353.094 4313.48,351.57C4325.86,334.622 4343.53,326.587 4363.9,323.04C4381.52,319.972 4401.27,320.351 4420.52,319.826C4424.08,319.669 4476.73,317.449 4494.69,322.034C4506.8,325.125 4522.25,333.336 4530.65,341.686C4536.36,347.353 4539.16,353.544 4539.42,358.762C4539.57,361.828 4541.02,366.744 4542,371.198C4543.05,375.999 4543.65,380.475 4543.46,383.441C4543.07,389.715 4538.79,398.621 4530.82,407.712C4516.87,423.609 4491.72,442.147 4473.55,450.04C4485.4,458.981 4494.06,465.398 4495.09,466.16C4525.67,487.911 4543.65,514.595 4553.21,544.552C4553.52,545.523 4553.71,546.529 4553.77,547.546C4553.77,547.546 4555.68,577.65 4554.61,592.051C4553.68,604.497 4544.46,622.093 4528.49,638.446C4506.47,660.997 4472,681.697 4434.91,683.923C4434.7,683.936 4434.49,683.943 4434.28,683.945C4434.28,683.945 4328.85,684.916 4328.85,684.917C4312.52,689.442 4305.65,695.915 4294.54,703.212C4289.07,706.8 4281.77,705.572 4277.78,700.395C4273.79,695.218 4274.46,687.839 4279.31,683.462C4291.45,672.519 4299.14,658.975 4304.09,643.821L4309.18,538.55C4309.46,532.729 4313.72,527.874 4319.45,526.842C4325.18,525.81 4330.86,528.875 4333.15,534.233C4348.66,570.505 4364.23,605.98 4401.72,618.898C4401.72,618.898 4425.58,618.491 4425.58,618.491C4443.07,610.344 4453.71,599.978 4456.22,586.158C4456.22,586.158 4456.79,566.531 4456.79,566.53C4448.16,550.454 4434.47,537.486 4408.2,518.049ZM4455.37,436.222C4455.64,435.029 4456.09,433.864 4456.72,432.764C4463.69,420.636 4462.56,411.468 4463.49,400.532C4463.47,399.815 4463.42,399.252 4463.02,398.861C4461.77,397.646 4459.87,397.285 4457.74,396.576C4454.61,395.529 4451.06,394.481 4447.19,393.075C4447.19,393.075 4413.52,393.293 4413.53,393.293C4409.43,393.517 4405.84,393.665 4402.75,393.936C4414.32,404.364 4435.94,421.339 4455.37,436.222ZM4287.68,692.754C4300.26,684.493 4308.02,677.418 4327.15,672.423L4434.16,671.437C4490.62,668.048 4540.19,617.249 4542.14,591.119C4543.17,577.281 4541.3,548.356 4541.3,548.356C4532.51,520.803 4515.91,496.299 4487.77,476.303C4487.77,476.303 4384.3,399.551 4385.2,393.014C4386.79,381.486 4395.45,381.762 4413.14,380.787L4449.41,380.552C4464.65,386.486 4475.08,385.789 4476,400.985C4474.79,414.003 4475.8,424.654 4467.56,438.996C4491.6,429.015 4530.07,397.435 4530.99,382.665C4531.32,377.332 4527.23,365.322 4526.93,359.377C4526.48,350.153 4506.12,337.862 4491.6,334.155C4473.94,329.646 4420.95,332.327 4420.95,332.327C4383.61,333.352 4344.33,330.525 4323.57,358.952C4323.57,358.952 4312.5,419.69 4323.52,437.161C4337.63,459.532 4417.04,508.69 4415.44,507.851C4445.56,530.122 4460.12,544.862 4469.38,563.677L4468.69,587.391C4465.75,605.871 4452.33,620.398 4428.38,630.954L4399.82,631.441C4357.33,617.922 4338.9,579.465 4321.66,539.153L4316.5,646.066C4310.9,663.975 4301.92,679.909 4287.68,692.754Z"/>
                </g>
                <g transform="matrix(0.988569,0,0,1.13515,55.8978,-55.4148)">
                    <path d="M4416.86,480.991C4416.56,480.77 4416.02,480.384 4415.49,479.999C4406.5,473.533 4368.91,446.505 4342.43,422.436C4329.84,410.996 4319.72,399.924 4315.13,391.733C4310.66,383.754 4308.2,370.007 4307.9,354.447C4307.31,324.415 4313.34,286.933 4313.34,286.933C4313.7,284.7 4314.51,282.587 4315.69,280.754C4328.92,260.369 4347.79,250.705 4369.55,246.439C4388.37,242.749 4409.46,243.204 4430.02,242.573C4433.82,242.385 4490.06,239.714 4509.24,245.229C4522.17,248.946 4538.68,258.822 4547.65,268.866C4553.74,275.681 4556.73,283.128 4557.01,289.404C4557.17,293.092 4558.72,299.005 4559.76,304.362C4560.89,310.137 4561.53,315.521 4561.33,319.087C4560.91,326.634 4556.34,337.346 4547.82,348.28C4532.93,367.401 4506.07,389.698 4486.66,399.192C4499.31,409.945 4508.56,417.664 4509.66,418.58C4542.32,444.741 4561.53,476.837 4571.74,512.869C4572.07,514.037 4572.27,515.246 4572.34,516.47C4572.34,516.47 4574.38,552.678 4573.23,570C4572.24,584.969 4562.39,606.133 4545.34,625.802C4521.82,652.926 4485,677.824 4445.4,680.501C4445.17,680.516 4444.94,680.525 4444.72,680.527C4444.72,680.527 4332.12,681.696 4332.12,681.696C4314.67,687.14 4307.33,694.925 4295.47,703.702C4289.63,708.017 4281.84,706.54 4277.57,700.314C4273.31,694.087 4274.02,685.211 4279.2,679.946C4292.17,666.785 4300.39,650.494 4305.67,632.268L4311.1,505.649C4311.4,498.648 4315.95,492.809 4322.07,491.568C4328.19,490.326 4334.26,494.013 4336.71,500.457C4353.27,544.085 4369.9,586.752 4409.95,602.29C4409.95,602.29 4435.43,601.801 4435.43,601.801C4454.11,592.002 4465.47,579.534 4468.15,562.911C4468.15,562.911 4468.76,539.304 4468.76,539.303C4459.54,519.967 4444.92,504.37 4416.86,480.991ZM4467.24,382.571C4467.53,381.137 4468.01,379.735 4468.69,378.412C4476.13,363.825 4474.93,352.798 4475.91,339.644C4475.9,338.782 4475.84,338.104 4475.41,337.635C4474.08,336.174 4472.05,335.738 4469.78,334.886C4466.43,333.627 4462.64,332.367 4458.5,330.676C4458.5,330.676 4422.55,330.938 4422.55,330.938C4418.17,331.207 4414.35,331.385 4411.05,331.711C4423.4,344.253 4446.5,364.671 4467.24,382.571ZM4288.14,691.123C4301.58,681.186 4309.87,672.677 4330.3,666.669L4444.6,665.483C4504.89,661.406 4557.83,600.307 4559.92,568.879C4561.02,552.234 4559.02,517.444 4559.02,517.444C4549.63,484.304 4531.91,454.831 4501.85,430.78C4501.85,430.78 4391.33,338.464 4392.3,330.601C4394,316.737 4403.25,317.069 4422.14,315.895L4460.88,315.613C4477.15,322.75 4488.3,321.911 4489.28,340.189C4487.99,355.847 4489.06,368.658 4480.26,385.908C4505.93,373.903 4547.02,335.92 4548,318.154C4548.36,311.74 4543.99,297.294 4543.68,290.144C4543.19,279.05 4521.45,264.266 4505.94,259.807C4487.08,254.385 4430.49,257.609 4430.49,257.609C4390.61,258.841 4348.65,255.442 4326.47,289.632C4326.47,289.632 4314.65,362.688 4326.42,383.701C4341.49,410.608 4426.3,469.735 4424.6,468.725C4456.77,495.513 4472.31,513.242 4482.21,535.871L4481.47,564.395C4478.33,586.622 4463.99,604.095 4438.41,616.791L4407.91,617.377C4362.53,601.117 4342.84,554.861 4324.44,506.375L4318.92,634.967C4312.94,656.508 4303.36,675.673 4288.14,691.123Z"/>
                </g>
            </g>
        </g>
        <g transform="matrix(1.01156,0,0,0.880943,-59.3288,56.379)">
            <g transform="matrix(0.988569,0,0,1.13515,58.6506,-63.9985)">
                <path d="M4946.5,325.101C4937.29,338.559 4919.41,349.938 4904.52,350.644C4891.58,351.257 4898.39,350.974 4859.31,351.152C4826.91,351.301 4764.42,306.718 4767.99,269.473C4769.43,254.36 4765.83,226.967 4770.22,202.218C4774.55,177.794 4814.9,132.459 4855.06,131.993C4889.6,131.593 4950.66,132.909 4950.66,132.909L4920.52,196.888C4920.52,196.888 4905.74,177.393 4896,173.15C4886.61,169.061 4862.26,169.47 4851.83,177.27C4839.65,186.38 4823.83,199.966 4824.17,216.262C4824.41,227.462 4823.84,261.668 4823.84,261.668C4824.57,285.161 4844.62,299.718 4857.99,308.759C4868.41,315.808 4893.14,316.418 4905.05,314.267C4915.07,312.456 4920.61,306.844 4929.44,295.852L4946.5,325.101Z" style="fill:rgb(241,233,210);"/>
                <path d="M4956.81,332.16C4945.52,348.667 4923.37,362.264 4905.11,363.13C4892.02,363.75 4898.91,363.471 4859.36,363.652C4837.53,363.752 4803.15,346.519 4780.31,323.08C4763.9,306.236 4753.82,286.319 4755.54,268.283C4757.01,252.945 4753.45,225.15 4757.91,200.034C4760.4,185.981 4772.72,165.559 4790.73,148.936C4808.65,132.394 4831.92,119.76 4854.92,119.494C4889.61,119.092 4950.93,120.412 4950.93,120.412C4955.17,120.503 4959.06,122.73 4961.29,126.328C4963.52,129.926 4963.78,134.408 4961.97,138.237L4931.83,202.215C4929.97,206.17 4926.17,208.865 4921.82,209.32C4917.48,209.775 4913.2,207.924 4910.56,204.44C4910.56,204.44 4905.7,198.028 4899.89,192.06C4896.89,188.982 4893.76,185.81 4891.01,184.61C4887.58,183.117 4881.39,182.811 4875.13,183.224C4869.16,183.619 4862.95,184.56 4859.32,187.281C4853.95,191.296 4847.73,196.244 4842.94,202.037C4839.47,206.228 4836.56,210.802 4836.67,215.998C4836.9,226.67 4836.4,258.013 4836.34,261.564C4837.09,280.33 4854.27,291.152 4864.99,298.405C4867.9,300.37 4872.49,301.293 4877.38,301.987C4886.48,303.277 4896.65,303.083 4902.83,301.966C4910.01,300.669 4913.37,295.894 4919.7,288.022C4922.28,284.813 4926.27,283.08 4930.37,283.386C4934.48,283.693 4938.17,286 4940.24,289.556L4957.3,318.805C4959.73,322.976 4959.54,328.175 4956.81,332.16ZM4946.5,325.101L4929.44,295.852C4920.61,306.844 4915.07,312.456 4905.05,314.267C4893.14,316.418 4868.41,315.808 4857.99,308.759C4844.62,299.718 4824.57,285.161 4823.84,261.668C4823.84,261.668 4824.41,227.462 4824.17,216.262C4823.83,199.966 4839.65,186.38 4851.83,177.27C4862.26,169.47 4886.61,169.061 4896,173.15C4905.74,177.393 4920.52,196.888 4920.52,196.888L4950.66,132.909C4950.66,132.909 4889.6,131.593 4855.06,131.993C4814.9,132.459 4774.55,177.794 4770.22,202.218C4765.83,226.967 4769.43,254.36 4767.99,269.473C4764.42,306.718 4826.91,351.301 4859.31,351.152C4898.39,350.974 4891.58,351.257 4904.52,350.644C4919.41,349.938 4937.29,338.559 4946.5,325.101Z"/>
            </g>
            <g transform="matrix(0.988569,0,0,1.13515,58.6506,-63.9985)">
                <path d="M4956.81,332.16C4945.52,348.667 4923.37,362.264 4905.11,363.13C4892.02,363.75 4898.91,363.471 4859.36,363.652C4837.53,363.752 4803.15,346.519 4780.31,323.08C4763.9,306.236 4753.82,286.319 4755.54,268.283C4757.01,252.945 4753.45,225.15 4757.91,200.034C4760.4,185.981 4772.72,165.559 4790.73,148.936C4808.65,132.394 4831.92,119.76 4854.92,119.494C4889.61,119.092 4950.93,120.412 4950.93,120.412C4955.17,120.503 4959.06,122.73 4961.29,126.328C4963.52,129.926 4963.78,134.408 4961.97,138.237L4931.83,202.215C4929.97,206.17 4926.17,208.865 4921.82,209.32C4917.48,209.775 4913.2,207.924 4910.56,204.44C4910.56,204.44 4905.7,198.028 4899.89,192.06C4896.89,188.982 4893.76,185.81 4891.01,184.61C4887.58,183.117 4881.39,182.811 4875.13,183.224C4869.16,183.619 4862.95,184.56 4859.32,187.281C4853.95,191.296 4847.73,196.244 4842.94,202.037C4839.47,206.228 4836.56,210.802 4836.67,215.998C4836.9,226.67 4836.4,258.013 4836.34,261.564C4837.09,280.33 4854.27,291.152 4864.99,298.405C4867.9,300.37 4872.49,301.293 4877.38,301.987C4886.48,303.277 4896.65,303.083 4902.83,301.966C4910.01,300.669 4913.37,295.894 4919.7,288.022C4922.28,284.813 4926.27,283.08 4930.37,283.386C4934.48,283.693 4938.17,286 4940.24,289.556L4957.3,318.805C4959.73,322.976 4959.54,328.175 4956.81,332.16ZM4946.5,325.101L4929.44,295.852C4920.61,306.844 4915.07,312.456 4905.05,314.267C4893.14,316.418 4868.41,315.808 4857.99,308.759C4844.62,299.718 4824.57,285.161 4823.84,261.668C4823.84,261.668 4824.41,227.462 4824.17,216.262C4823.83,199.966 4839.65,186.38 4851.83,177.27C4862.26,169.47 4886.61,169.061 4896,173.15C4905.74,177.393 4920.52,196.888 4920.52,196.888L4950.66,132.909C4950.66,132.909 4889.6,131.593 4855.06,131.993C4814.9,132.459 4774.55,177.794 4770.22,202.218C4765.83,226.967 4769.43,254.36 4767.99,269.473C4764.42,306.718 4826.91,351.301 4859.31,351.152C4898.39,350.974 4891.58,351.257 4904.52,350.644C4919.41,349.938 4937.29,338.559 4946.5,325.101Z"/>
            </g>
        </g>
        <g transform="matrix(1.01156,0,0,0.880943,-59.3288,56.379)">
            <g transform="matrix(0.988569,0,0,1.13515,58.6506,-63.9985)">
                <path d="M5129.32,325.101C5120.11,338.559 5102.23,349.938 5087.35,350.644C5074.41,351.257 5081.22,350.974 5042.13,351.152C5009.73,351.301 4947.25,306.718 4950.81,269.473C4952.26,254.36 4948.65,226.967 4953.04,202.218C4957.38,177.794 4997.72,132.459 5037.89,131.993C5072.43,131.593 5133.49,132.909 5133.49,132.909L5103.35,196.888C5103.35,196.888 5088.57,177.393 5078.82,173.15C5069.44,169.061 5045.09,169.47 5034.66,177.27C5022.47,186.38 5006.65,199.966 5007,216.262C5007.23,227.462 5006.66,261.668 5006.66,261.668C5007.39,285.161 5027.45,299.718 5040.81,308.759C5051.23,315.808 5075.97,316.418 5087.87,314.267C5097.9,312.456 5103.43,306.844 5112.27,295.852L5129.32,325.101Z" style="fill:rgb(241,233,210);"/>
                <path d="M5139.64,332.16C5128.34,348.667 5106.19,362.264 5087.94,363.13C5074.85,363.75 5081.73,363.471 5042.19,363.652C5020.36,363.752 4985.97,346.519 4963.13,323.08C4946.72,306.236 4936.64,286.319 4938.37,268.283C4939.84,252.945 4936.28,225.15 4940.73,200.034C4943.23,185.981 4955.54,165.559 4973.55,148.936C4991.47,132.394 5014.74,119.76 5037.74,119.494C5072.43,119.092 5133.76,120.412 5133.76,120.412C5137.99,120.503 5141.89,122.73 5144.12,126.328C5146.35,129.926 5146.6,134.408 5144.8,138.237L5114.66,202.215C5112.79,206.17 5109,208.865 5104.65,209.32C5100.3,209.775 5096.03,207.924 5093.39,204.44C5093.39,204.44 5088.52,198.028 5082.71,192.06C5079.71,188.982 5076.59,185.81 5073.83,184.61C5070.41,183.117 5064.21,182.811 5057.96,183.224C5051.98,183.619 5045.78,184.56 5042.14,187.281C5036.77,191.296 5030.55,196.244 5025.76,202.037C5022.3,206.228 5019.39,210.802 5019.5,215.998C5019.72,226.67 5019.23,258.013 5019.17,261.564C5019.92,280.33 5037.09,291.152 5047.82,298.405C5050.72,300.37 5055.32,301.293 5060.21,301.987C5069.3,303.277 5079.47,303.083 5085.65,301.966C5092.83,300.669 5096.2,295.894 5102.52,288.022C5105.1,284.813 5109.09,283.08 5113.2,283.386C5117.3,283.693 5120.99,286 5123.07,289.556L5140.12,318.805C5142.55,322.976 5142.36,328.175 5139.64,332.16ZM5129.32,325.101L5112.27,295.852C5103.43,306.844 5097.9,312.456 5087.87,314.267C5075.97,316.418 5051.23,315.808 5040.81,308.759C5027.45,299.718 5007.39,285.161 5006.66,261.668C5006.66,261.668 5007.23,227.462 5007,216.262C5006.65,199.966 5022.47,186.38 5034.66,177.27C5045.09,169.47 5069.44,169.061 5078.82,173.15C5088.57,177.393 5103.35,196.888 5103.35,196.888L5133.49,132.909C5133.49,132.909 5072.43,131.593 5037.89,131.993C4997.72,132.459 4957.38,177.794 4953.04,202.218C4948.65,226.967 4952.26,254.36 4950.81,269.473C4947.25,306.718 5009.73,351.301 5042.13,351.152C5081.22,350.974 5074.41,351.257 5087.35,350.644C5102.23,349.938 5120.11,338.559 5129.32,325.101Z"/>
            </g>
            <g transform="matrix(0.988569,0,0,1.13515,239.386,-63.9985)">
                <path d="M4956.81,332.16C4945.52,348.667 4923.37,362.264 4905.11,363.13C4892.02,363.75 4898.91,363.471 4859.36,363.652C4837.53,363.752 4803.15,346.519 4780.31,323.08C4763.9,306.236 4753.82,286.319 4755.54,268.283C4757.01,252.945 4753.45,225.15 4757.91,200.034C4760.4,185.981 4772.72,165.559 4790.73,148.936C4808.65,132.394 4831.92,119.76 4854.92,119.494C4889.61,119.092 4950.93,120.412 4950.93,120.412C4955.17,120.503 4959.06,122.73 4961.29,126.328C4963.52,129.926 4963.78,134.408 4961.97,138.237L4931.83,202.215C4929.97,206.17 4926.17,208.865 4921.82,209.32C4917.48,209.775 4913.2,207.924 4910.56,204.44C4910.56,204.44 4905.7,198.028 4899.89,192.06C4896.89,188.982 4893.76,185.81 4891.01,184.61C4887.58,183.117 4881.39,182.811 4875.13,183.224C4869.16,183.619 4862.95,184.56 4859.32,187.281C4853.95,191.296 4847.73,196.244 4842.94,202.037C4839.47,206.228 4836.56,210.802 4836.67,215.998C4836.9,226.67 4836.4,258.013 4836.34,261.564C4837.09,280.33 4854.27,291.152 4864.99,298.405C4867.9,300.37 4872.49,301.293 4877.38,301.987C4886.48,303.277 4896.65,303.083 4902.83,301.966C4910.01,300.669 4913.37,295.894 4919.7,288.022C4922.28,284.813 4926.27,283.08 4930.37,283.386C4934.48,283.693 4938.17,286 4940.24,289.556L4957.3,318.805C4959.73,322.976 4959.54,328.175 4956.81,332.16ZM4946.5,325.101L4929.44,295.852C4920.61,306.844 4915.07,312.456 4905.05,314.267C4893.14,316.418 4868.41,315.808 4857.99,308.759C4844.62,299.718 4824.57,285.161 4823.84,261.668C4823.84,261.668 4824.41,227.462 4824.17,216.262C4823.83,199.966 4839.65,186.38 4851.83,177.27C4862.26,169.47 4886.61,169.061 4896,173.15C4905.74,177.393 4920.52,196.888 4920.52,196.888L4950.66,132.909C4950.66,132.909 4889.6,131.593 4855.06,131.993C4814.9,132.459 4774.55,177.794 4770.22,202.218C4765.83,226.967 4769.43,254.36 4767.99,269.473C4764.42,306.718 4826.91,351.301 4859.31,351.152C4898.39,350.974 4891.58,351.257 4904.52,350.644C4919.41,349.938 4937.29,338.559 4946.5,325.101Z"/>
            </g>
        </g>
        <g transform="matrix(1.01156,0,0,0.880943,-59.3288,56.379)">
            <g transform="matrix(0.988569,0,0,1.13515,58.6506,-63.9985)">
                <path d="M5144.19,129.834L5319.79,129.458C5312.5,133.177 5309.34,138.644 5310.68,148.743L5311.06,185.634C5309.15,176.938 5296.57,171.156 5272.32,170.86L5214.54,170.017L5215.46,221.334L5267.83,221.597C5272.82,222.107 5276.8,220.462 5279.6,216.271L5279.59,264.957C5278.47,258.923 5277.26,254.505 5267.61,255.402L5215.23,255.055L5216.09,312.862L5289.65,312.529C5301.35,312.526 5311.18,308.379 5318.49,298.643L5318.05,354.311L5143.9,353.104C5155.47,347.174 5159.42,336.318 5158.7,325.058L5159.23,153.282C5160.78,141.691 5154.83,134.001 5144.19,129.834Z" style="fill:rgb(241,233,210);"/>
                <path d="M5298.95,188.749C5298.53,188.451 5296.83,187.266 5295.42,186.701C5290.05,184.55 5282.32,183.483 5272.17,183.359C5272.16,183.359 5272.15,183.359 5272.14,183.359L5227.27,182.704C5227.27,182.704 5227.74,208.895 5227.74,208.895L5267.9,209.097C5268.3,209.099 5268.7,209.12 5269.11,209.162C5269.17,209.168 5269.24,209.172 5269.31,209.174C5272.4,204.702 5278.02,202.727 5283.23,204.31C5288.5,205.91 5292.1,210.769 5292.1,216.275L5292.09,264.962C5292.08,271.421 5287.16,276.815 5280.73,277.405C5274.52,277.974 5268.88,273.892 5267.44,267.901L5227.92,267.64L5228.4,300.306L5289.59,300.029C5289.61,300.029 5289.63,300.029 5289.65,300.029C5297.26,300.027 5303.73,297.476 5308.49,291.137C5311.73,286.821 5317.38,285.073 5322.49,286.801C5327.6,288.53 5331.03,293.345 5330.99,298.742L5330.55,354.409C5330.49,361.308 5324.86,366.858 5317.96,366.81L5143.82,365.604C5138.06,365.564 5133.07,361.596 5131.74,355.995C5130.41,350.393 5133.08,344.607 5138.2,341.98C5144.77,338.612 5146.64,332.251 5146.23,325.855C5146.21,325.577 5146.2,325.299 5146.2,325.02L5146.73,153.244C5146.73,152.704 5146.77,152.165 5146.84,151.63C5147.53,146.447 5144.39,143.336 5139.63,141.473C5134.04,139.284 5130.79,133.429 5131.9,127.528C5133.01,121.627 5138.15,117.347 5144.16,117.334L5319.76,116.958C5325.55,116.946 5330.58,120.903 5331.94,126.525C5333.3,132.148 5330.62,137.967 5325.47,140.594C5324.5,141.086 5323.6,141.441 5323.19,142.26C5322.58,143.498 5322.8,145.082 5323.07,147.102C5323.13,147.603 5323.17,148.109 5323.18,148.615L5323.56,185.505C5323.62,191.913 5318.83,197.332 5312.47,198.054C5306.25,198.759 5300.49,194.764 5298.95,188.749ZM5269.58,209.178C5269.67,209.179 5269.74,209.177 5269.74,209.177C5269.74,209.177 5269.67,209.172 5269.58,209.178ZM5144.19,129.834C5154.83,134.001 5160.78,141.691 5159.23,153.282L5158.7,325.058C5159.42,336.318 5155.47,347.174 5143.9,353.104L5318.05,354.311L5318.49,298.643C5311.18,308.379 5301.35,312.526 5289.65,312.529L5216.09,312.862L5215.23,255.055L5267.61,255.402C5277.26,254.505 5278.47,258.923 5279.59,264.957L5279.6,216.271C5276.8,220.462 5272.82,222.107 5267.83,221.597L5215.46,221.334L5214.54,170.017L5272.32,170.86C5296.57,171.156 5309.15,176.938 5311.06,185.634L5310.68,148.743C5309.34,138.644 5312.5,133.177 5319.79,129.458L5144.19,129.834Z"/>
            </g>
            <g transform="matrix(0.988569,0,0,1.13515,58.6506,-63.9985)">
                <path d="M5298.95,188.749C5298.53,188.451 5296.83,187.266 5295.42,186.701C5290.05,184.55 5282.32,183.483 5272.17,183.359C5272.16,183.359 5272.15,183.359 5272.14,183.359L5227.27,182.704C5227.27,182.704 5227.74,208.895 5227.74,208.895L5267.9,209.097C5268.3,209.099 5268.7,209.12 5269.11,209.162C5269.17,209.168 5269.24,209.172 5269.31,209.174C5272.4,204.702 5278.02,202.727 5283.23,204.31C5288.5,205.91 5292.1,210.769 5292.1,216.275L5292.09,264.962C5292.08,271.421 5287.16,276.815 5280.73,277.405C5274.52,277.974 5268.88,273.892 5267.44,267.901L5227.92,267.64L5228.4,300.306L5289.59,300.029C5289.61,300.029 5289.63,300.029 5289.65,300.029C5297.26,300.027 5303.73,297.476 5308.49,291.137C5311.73,286.821 5317.38,285.073 5322.49,286.801C5327.6,288.53 5331.03,293.345 5330.99,298.742L5330.55,354.409C5330.49,361.308 5324.86,366.858 5317.96,366.81L5143.82,365.604C5138.06,365.564 5133.07,361.596 5131.74,355.995C5130.41,350.393 5133.08,344.607 5138.2,341.98C5144.77,338.612 5146.64,332.251 5146.23,325.855C5146.21,325.577 5146.2,325.299 5146.2,325.02L5146.73,153.244C5146.73,152.704 5146.77,152.165 5146.84,151.63C5147.53,146.447 5144.39,143.336 5139.63,141.473C5134.04,139.284 5130.79,133.429 5131.9,127.528C5133.01,121.627 5138.15,117.347 5144.16,117.334L5319.76,116.958C5325.55,116.946 5330.58,120.903 5331.94,126.525C5333.3,132.148 5330.62,137.967 5325.47,140.594C5324.5,141.086 5323.6,141.441 5323.19,142.26C5322.58,143.498 5322.8,145.082 5323.07,147.102C5323.13,147.603 5323.17,148.109 5323.18,148.615L5323.56,185.505C5323.62,191.913 5318.83,197.332 5312.47,198.054C5306.25,198.759 5300.49,194.764 5298.95,188.749ZM5269.58,209.178C5269.67,209.179 5269.74,209.177 5269.74,209.177C5269.74,209.177 5269.67,209.172 5269.58,209.178ZM5144.19,129.834C5154.83,134.001 5160.78,141.691 5159.23,153.282L5158.7,325.058C5159.42,336.318 5155.47,347.174 5143.9,353.104L5318.05,354.311L5318.49,298.643C5311.18,308.379 5301.35,312.526 5289.65,312.529L5216.09,312.862L5215.23,255.055L5267.61,255.402C5277.26,254.505 5278.47,258.923 5279.59,264.957L5279.6,216.271C5276.8,220.462 5272.82,222.107 5267.83,221.597L5215.46,221.334L5214.54,170.017L5272.32,170.86C5296.57,171.156 5309.15,176.938 5311.06,185.634L5310.68,148.743C5309.34,138.644 5312.5,133.177 5319.79,129.458L5144.19,129.834Z"/>
            </g>
        </g>
        <g transform="matrix(1.01156,0,0,0.880943,-59.3288,56.379)">
            <g transform="matrix(0.988569,0,0,1.13515,58.6506,-63.9985)">
                <path d="M5536.46,130.291C5507.3,145.69 5497.67,166.486 5493.11,188.68C5490.97,179.195 5477.22,174.164 5467.08,171.026C5456.39,167.718 5437.86,169.661 5424.59,169.999C5408.51,170.407 5383.07,201.851 5382.68,217.765C5382.41,228.851 5383.24,242.276 5382.73,254.516C5382.02,271.611 5408.7,303.781 5426.38,309.23C5440.36,313.536 5478.05,311.399 5478.05,311.399L5478.35,258.54L5449.55,258.424C5444.23,257.944 5441.09,260.072 5439.75,264.34L5439.71,223.306C5440.07,228.383 5445.81,229.911 5455.36,228.931L5550.75,229.443C5538.05,235.475 5528.05,248.706 5526.46,261.186L5526.26,351.03C5526.26,351.03 5450.31,351.984 5414.43,350.648C5379.76,349.357 5331.69,290.981 5331.73,271.568C5331.78,252.156 5331.4,223.823 5332.49,211.66C5334.82,185.627 5376.32,144.131 5411.6,134.57C5439.44,127.023 5514.91,130.047 5536.46,130.291Z" style="fill:rgb(241,233,210);"/>
                <path d="M5450.37,270.927C5447.79,275.1 5442.9,277.468 5437.86,276.696C5431.76,275.763 5427.25,270.521 5427.25,264.351L5427.21,223.317C5427.2,216.582 5432.53,211.053 5439.27,210.813C5443.86,210.65 5447.97,212.985 5450.27,216.617C5451.44,216.636 5452.87,216.621 5454.09,216.496C5454.53,216.45 5454.98,216.429 5455.43,216.431L5550.82,216.943C5556.65,216.974 5561.69,221.034 5562.95,226.727C5564.22,232.42 5561.38,238.233 5556.11,240.734C5547.45,244.848 5540.35,253.561 5538.96,262.086L5538.76,351.058C5538.75,357.889 5533.25,363.443 5526.42,363.529C5526.42,363.529 5450.05,364.483 5413.96,363.14C5403.76,362.759 5392.5,358.64 5381.44,351.822C5366.79,342.79 5352.29,329.033 5341.13,315.3C5327.35,298.331 5319.21,280.892 5319.23,271.538C5319.28,251.774 5318.93,222.927 5320.04,210.544C5321.15,198.166 5329.14,182.553 5341.69,167.899C5359.12,147.551 5385.04,128.818 5408.32,122.505C5436.93,114.751 5514.47,117.541 5536.6,117.792C5542.32,117.857 5547.27,121.795 5548.61,127.354C5549.96,132.913 5547.36,138.676 5542.3,141.346C5517.41,154.483 5509.25,172.26 5505.36,191.196C5504.17,196.963 5499.12,201.122 5493.23,201.179C5487.35,201.237 5482.22,197.177 5480.92,191.434C5480.83,191.023 5480.38,190.826 5480.05,190.521C5479.15,189.7 5478.06,188.992 5476.9,188.332C5472.72,185.943 5467.66,184.289 5463.38,182.968C5453.7,179.973 5436.92,182.189 5424.9,182.495C5423.51,182.53 5422.07,183.394 5420.48,184.342C5417.57,186.068 5414.62,188.512 5411.77,191.312C5406.24,196.761 5401.17,203.56 5397.97,209.896C5396.44,212.935 5395.23,215.733 5395.17,218.071C5394.9,229.222 5395.73,242.726 5395.22,255.038C5395.02,259.89 5398.64,266.152 5403.01,272.53C5410.55,283.547 5421.39,294.612 5430.06,297.284C5438.02,299.737 5454.39,299.769 5465.62,299.445L5465.78,270.99L5450.37,270.927ZM5536.46,130.291C5514.91,130.047 5439.44,127.023 5411.6,134.57C5376.32,144.131 5334.82,185.627 5332.49,211.66C5331.4,223.823 5331.78,252.156 5331.73,271.568C5331.69,290.981 5379.76,349.357 5414.43,350.648C5450.31,351.984 5526.26,351.03 5526.26,351.03L5526.46,261.186C5528.05,248.706 5538.05,235.475 5550.75,229.443L5455.36,228.931C5445.81,229.911 5440.07,228.383 5439.71,223.306L5439.75,264.34C5441.09,260.072 5444.23,257.944 5449.55,258.424L5478.35,258.54L5478.05,311.399C5478.05,311.399 5440.36,313.536 5426.38,309.23C5408.7,303.781 5382.02,271.611 5382.73,254.516C5383.24,242.276 5382.41,228.851 5382.68,217.765C5383.07,201.851 5408.51,170.407 5424.59,169.999C5437.86,169.661 5456.39,167.718 5467.08,171.026C5477.22,174.164 5490.97,179.195 5493.11,188.68C5497.67,166.486 5507.3,145.69 5536.46,130.291Z"/>
            </g>
            <g transform="matrix(0.988569,0,0,1.13515,58.6506,-63.9985)">
                <path d="M5450.37,270.927C5447.79,275.1 5442.9,277.468 5437.86,276.696C5431.76,275.763 5427.25,270.521 5427.25,264.351L5427.21,223.317C5427.2,216.582 5432.53,211.053 5439.27,210.813C5443.86,210.65 5447.97,212.985 5450.27,216.617C5451.44,216.636 5452.87,216.621 5454.09,216.496C5454.53,216.45 5454.98,216.429 5455.43,216.431L5550.82,216.943C5556.65,216.974 5561.69,221.034 5562.95,226.727C5564.22,232.42 5561.38,238.233 5556.11,240.734C5547.45,244.848 5540.35,253.561 5538.96,262.086L5538.76,351.058C5538.75,357.889 5533.25,363.443 5526.42,363.529C5526.42,363.529 5450.05,364.483 5413.96,363.14C5403.76,362.759 5392.5,358.64 5381.44,351.822C5366.79,342.79 5352.29,329.033 5341.13,315.3C5327.35,298.331 5319.21,280.892 5319.23,271.538C5319.28,251.774 5318.93,222.927 5320.04,210.544C5321.15,198.166 5329.14,182.553 5341.69,167.899C5359.12,147.551 5385.04,128.818 5408.32,122.505C5436.93,114.751 5514.47,117.541 5536.6,117.792C5542.32,117.857 5547.27,121.795 5548.61,127.354C5549.96,132.913 5547.36,138.676 5542.3,141.346C5517.41,154.483 5509.25,172.26 5505.36,191.196C5504.17,196.963 5499.12,201.122 5493.23,201.179C5487.35,201.237 5482.22,197.177 5480.92,191.434C5480.83,191.023 5480.38,190.826 5480.05,190.521C5479.15,189.7 5478.06,188.992 5476.9,188.332C5472.72,185.943 5467.66,184.289 5463.38,182.968C5453.7,179.973 5436.92,182.189 5424.9,182.495C5423.51,182.53 5422.07,183.394 5420.48,184.342C5417.57,186.068 5414.62,188.512 5411.77,191.312C5406.24,196.761 5401.17,203.56 5397.97,209.896C5396.44,212.935 5395.23,215.733 5395.17,218.071C5394.9,229.222 5395.73,242.726 5395.22,255.038C5395.02,259.89 5398.64,266.152 5403.01,272.53C5410.55,283.547 5421.39,294.612 5430.06,297.284C5438.02,299.737 5454.39,299.769 5465.62,299.445L5465.78,270.99L5450.37,270.927ZM5536.46,130.291C5514.91,130.047 5439.44,127.023 5411.6,134.57C5376.32,144.131 5334.82,185.627 5332.49,211.66C5331.4,223.823 5331.78,252.156 5331.73,271.568C5331.69,290.981 5379.76,349.357 5414.43,350.648C5450.31,351.984 5526.26,351.03 5526.26,351.03L5526.46,261.186C5528.05,248.706 5538.05,235.475 5550.75,229.443L5455.36,228.931C5445.81,229.911 5440.07,228.383 5439.71,223.306L5439.75,264.34C5441.09,260.072 5444.23,257.944 5449.55,258.424L5478.35,258.54L5478.05,311.399C5478.05,311.399 5440.36,313.536 5426.38,309.23C5408.7,303.781 5382.02,271.611 5382.73,254.516C5383.24,242.276 5382.41,228.851 5382.68,217.765C5383.07,201.851 5408.51,170.407 5424.59,169.999C5437.86,169.661 5456.39,167.718 5467.08,171.026C5477.22,174.164 5490.97,179.195 5493.11,188.68C5497.67,166.486 5507.3,145.69 5536.46,130.291Z"/>
            </g>
        </g>
        <g transform="matrix(1.01156,0,0,0.880943,-59.3288,56.379)">
            <g transform="matrix(0.988569,0,0,1.13515,58.6506,-63.9985)">
                <path d="M5279.32,625.336C5292.41,621.481 5298.06,614.679 5302.2,603.968L5300.99,409.108C5296.41,398.525 5286.64,388.198 5268.87,385.038C5275.96,385.293 5393.44,380.84 5427.54,386.116C5463.33,391.655 5487.66,423.722 5490.27,436.175C5491.62,442.63 5492.71,456.172 5490.29,466.771C5487.51,478.974 5431.27,522.697 5427.35,521.463C5434.3,555.08 5466.05,592.072 5515.3,631.449L5437.7,629.374C5410.54,597.205 5362.79,521.024 5362.79,521.024C5361.13,520.276 5355.32,528.398 5355.65,538.947L5356.54,607.312C5358.68,617.944 5362.71,624.477 5370.86,626.244L5279.32,625.336ZM5355.04,495.222C5355.04,495.222 5383.64,495.169 5399.7,494.532C5413.64,493.978 5423.84,479.152 5428.85,470.255C5433.23,462.463 5432.8,448.091 5428.04,440.522C5424.1,434.259 5408.9,424.88 5393.1,423.199C5381.37,421.952 5355.23,422.651 5355.23,422.651L5355.04,495.222Z" style="fill:rgb(241,233,210);"/>
                <path d="M5442.04,527.837C5451.98,556.927 5481.11,588.113 5523.11,621.685C5527.3,625.039 5528.89,630.697 5527.04,635.742C5525.2,640.786 5520.34,644.088 5514.97,643.944L5437.37,641.869C5433.81,641.774 5430.45,640.162 5428.15,637.438C5410.73,616.799 5384.92,578.295 5368.33,552.818C5368.59,572.5 5369.02,605.925 5369.02,605.927C5369.43,607.749 5369.91,609.392 5370.53,610.835C5371.2,612.404 5371.93,613.686 5373.51,614.028C5379.77,615.387 5383.99,621.266 5383.28,627.638C5382.57,634.01 5377.15,638.807 5370.73,638.744L5279.19,637.835C5273,637.774 5267.79,633.19 5266.93,627.058C5266.08,620.925 5269.85,615.093 5275.79,613.345C5283.39,611.105 5287.07,607.283 5289.69,601.51C5289.69,601.51 5288.51,411.991 5288.51,411.99C5284.91,405.333 5278.04,399.365 5266.68,397.345C5260.22,396.195 5255.75,390.243 5256.44,383.715C5257.14,377.188 5262.76,372.31 5269.32,372.546C5276.48,372.803 5395.04,368.438 5429.45,373.763C5454.1,377.578 5474.1,392.195 5486.74,406.493C5495.95,416.918 5501.2,427.363 5502.51,433.616C5504.09,441.198 5505.32,457.104 5502.48,469.553C5501.54,473.681 5497.02,480.916 5489.46,488.672C5476.38,502.088 5454.11,519.823 5442.05,527.833L5442.04,527.837ZM5279.32,625.336L5370.86,626.244C5362.71,624.477 5358.68,617.944 5356.54,607.312L5355.65,538.947C5355.32,528.398 5361.13,520.276 5362.79,521.024C5362.79,521.024 5410.54,597.205 5437.7,629.374L5515.3,631.449C5466.05,592.072 5434.3,555.08 5427.35,521.463C5431.27,522.697 5487.51,478.974 5490.29,466.771C5492.71,456.172 5491.62,442.63 5490.27,436.175C5487.66,423.722 5463.33,391.655 5427.54,386.116C5393.44,380.84 5275.96,385.293 5268.87,385.038C5286.64,388.198 5296.41,398.525 5300.99,409.108L5302.2,603.968C5298.06,614.679 5292.41,621.481 5279.32,625.336ZM5355.04,495.222L5355.23,422.651C5355.23,422.651 5381.37,421.952 5393.1,423.199C5408.9,424.88 5424.1,434.259 5428.04,440.522C5432.8,448.091 5433.23,462.463 5428.85,470.255C5423.84,479.152 5413.64,493.978 5399.7,494.532C5383.64,495.169 5355.04,495.222 5355.04,495.222ZM5367.57,482.651C5377.15,482.57 5390.17,482.4 5399.2,482.041C5403.03,481.89 5406.11,479.34 5408.81,476.656C5412.84,472.654 5415.9,467.765 5417.95,464.123C5420.45,459.682 5420.17,451.491 5417.45,447.176C5416.58,445.779 5414.47,444.37 5411.96,442.803C5406.62,439.462 5399.29,436.428 5391.77,435.629C5385.73,434.986 5375.68,434.896 5367.69,434.95L5367.57,482.651Z"/>
            </g>
            <g>
                <g transform="matrix(0.988569,0,0,1.13515,58.6506,-63.9985)">
                    <path d="M5442.04,527.837C5451.98,556.927 5481.11,588.113 5523.11,621.685C5527.3,625.039 5528.89,630.697 5527.04,635.742C5525.2,640.786 5520.34,644.088 5514.97,643.944L5437.37,641.869C5433.81,641.774 5430.45,640.162 5428.15,637.438C5410.73,616.799 5384.92,578.295 5368.33,552.818C5368.59,572.5 5369.02,605.925 5369.02,605.927C5369.43,607.749 5369.91,609.392 5370.53,610.835C5371.2,612.404 5371.93,613.686 5373.51,614.028C5379.77,615.387 5383.99,621.266 5383.28,627.638C5382.57,634.01 5377.15,638.807 5370.73,638.744L5279.19,637.835C5273,637.774 5267.79,633.19 5266.93,627.058C5266.08,620.925 5269.85,615.093 5275.79,613.345C5283.39,611.105 5287.07,607.283 5289.69,601.51C5289.69,601.51 5288.51,411.991 5288.51,411.99C5284.91,405.333 5278.04,399.365 5266.68,397.345C5260.22,396.195 5255.75,390.243 5256.44,383.715C5257.14,377.188 5262.76,372.31 5269.32,372.546C5276.48,372.803 5395.04,368.438 5429.45,373.763C5454.1,377.578 5474.1,392.195 5486.74,406.493C5495.95,416.918 5501.2,427.363 5502.51,433.616C5504.09,441.198 5505.32,457.104 5502.48,469.553C5501.54,473.681 5497.02,480.916 5489.46,488.672C5476.38,502.088 5454.11,519.823 5442.05,527.833L5442.04,527.837ZM5279.32,625.336L5370.86,626.244C5362.71,624.477 5358.68,617.944 5356.54,607.312L5355.65,538.947C5355.32,528.398 5361.13,520.276 5362.79,521.024C5362.79,521.024 5410.54,597.205 5437.7,629.374L5515.3,631.449C5466.05,592.072 5434.3,555.08 5427.35,521.463C5431.27,522.697 5487.51,478.974 5490.29,466.771C5492.71,456.172 5491.62,442.63 5490.27,436.175C5487.66,423.722 5463.33,391.655 5427.54,386.116C5393.44,380.84 5275.96,385.293 5268.87,385.038C5286.64,388.198 5296.41,398.525 5300.99,409.108L5302.2,603.968C5298.06,614.679 5292.41,621.481 5279.32,625.336Z"/>
                </g>
                <g transform="matrix(0.988569,0,0,1.13515,58.6506,-63.9985)">
                    <path d="M5342.54,495.19L5342.73,422.619C5342.74,415.858 5348.13,410.336 5354.89,410.155C5354.89,410.155 5382.18,409.468 5394.42,410.769C5414.63,412.918 5433.58,425.859 5438.62,433.867C5445.43,444.692 5446.01,465.245 5439.74,476.388C5436.13,482.802 5430.16,491.696 5422.44,497.996C5416.05,503.211 5408.51,506.692 5400.19,507.022C5383.96,507.666 5355.07,507.722 5355.07,507.722C5351.74,507.728 5348.55,506.41 5346.2,504.058C5343.85,501.706 5342.53,498.515 5342.54,495.19ZM5355.04,495.222C5355.04,495.222 5383.64,495.169 5399.7,494.532C5413.64,493.978 5423.84,479.152 5428.85,470.255C5433.23,462.463 5432.8,448.091 5428.04,440.522C5424.1,434.259 5408.9,424.88 5393.1,423.199C5381.37,421.952 5355.23,422.651 5355.23,422.651L5355.04,495.222Z"/>
                </g>
            </g>
        </g>
        <g transform="matrix(1.01156,0,0,0.880943,-59.3288,56.379)">
            <g transform="matrix(1.03586,0,0,0.952556,-202.305,41.2881)">
                <g transform="matrix(0.988569,0,0,1.13515,58.6506,-63.9985)">
                    <path d="M5630.35,672.098C5576.58,670.337 5517.9,575.933 5516.47,531.35C5515.67,506.468 5517.54,473.964 5517.3,446.996C5516.65,374.47 5598.72,306.726 5620.94,303.245C5636.56,300.797 5668.96,300.24 5686.39,303.282C5736.2,311.976 5780.5,384.182 5783.37,431.331C5785.84,472.035 5782.16,517.423 5780.94,552.336C5778.94,609.514 5715.23,665.936 5672.41,671.398C5651.62,674.05 5643.1,672.516 5630.35,672.098ZM5633.15,612.492C5639.66,612.785 5659.57,613.376 5670.18,611.515C5692.02,607.683 5708.11,568.772 5709.13,528.656C5709.75,504.162 5711.91,466.787 5709.67,438.095C5707.01,404.234 5701.75,358.484 5678.56,350.838C5669.31,347.789 5630.11,345.711 5623.5,351.895C5607.62,366.759 5586.89,405.317 5586.31,451.901C5586.08,470.819 5586.46,495.447 5586.86,512.904C5587.59,544.183 5605.72,611.256 5633.15,612.492Z" style="fill:rgb(241,233,210);"/>
                    <path d="M5629.98,685.214C5605.78,684.422 5580.32,667.705 5558.82,643.81C5527.86,609.393 5505.34,560.714 5504.41,531.807C5503.61,506.828 5505.48,474.198 5505.23,447.124C5504.81,399.931 5535.92,354.147 5566.69,324.622C5587.98,304.187 5609.21,291.824 5619.22,290.256C5635.71,287.673 5669.9,287.115 5688.3,290.325C5710.64,294.224 5732.18,309.159 5749.96,329.488C5775.8,359.032 5793.54,399.737 5795.41,430.466C5797.91,471.628 5794.23,517.528 5792.99,552.835C5791.88,584.602 5774.15,616.463 5750.23,640.837C5726.64,664.872 5697.27,681.439 5673.82,684.431C5652.15,687.195 5643.27,685.65 5629.98,685.214ZM5630.35,672.098C5643.1,672.516 5651.62,674.05 5672.41,671.398C5715.23,665.936 5778.94,609.514 5780.94,552.336C5782.16,517.423 5785.84,472.035 5783.37,431.331C5780.5,384.182 5736.2,311.976 5686.39,303.282C5668.96,300.24 5636.56,300.797 5620.94,303.245C5598.72,306.726 5516.65,374.47 5517.3,446.996C5517.54,473.964 5515.67,506.468 5516.47,531.35C5517.9,575.933 5576.58,670.337 5630.35,672.098ZM5633.15,612.492C5605.72,611.256 5587.59,544.183 5586.86,512.904C5586.46,495.447 5586.08,470.819 5586.31,451.901C5586.89,405.317 5607.62,366.759 5623.5,351.895C5630.11,345.711 5669.31,347.789 5678.56,350.838C5701.75,358.484 5707.01,404.234 5709.67,438.095C5711.91,466.787 5709.75,504.162 5709.13,528.656C5708.11,568.772 5692.02,607.683 5670.18,611.515C5659.57,613.376 5639.66,612.785 5633.15,612.492ZM5630.51,362.674C5616.36,376.63 5598.88,410.985 5598.38,452.076C5598.15,470.837 5598.52,495.26 5598.93,512.571C5599.33,529.824 5605.52,558.912 5615.84,579.676C5618.88,585.812 5622.25,591.195 5626.06,595.026C5628.44,597.414 5630.86,599.255 5633.65,599.381C5639.73,599.654 5658.34,600.299 5668.25,598.56C5674.05,597.545 5678.72,592.137 5682.9,585.119C5691.34,570.939 5696.52,549.78 5697.07,528.294C5697.68,504.198 5699.85,467.434 5697.64,439.208C5696.15,420.143 5693.95,397.024 5687.59,380.059C5684.62,372.133 5681.16,365.407 5675.06,363.396C5669.28,361.492 5650.4,360.264 5637.57,361.44C5634.98,361.678 5631.62,362.418 5630.51,362.674Z"/>
                </g>
                <g>
                    <g transform="matrix(0.988569,0,0,1.13515,58.6506,-63.9985)">
                        <path d="M5629.98,685.214C5605.78,684.422 5580.32,667.705 5558.82,643.81C5527.86,609.393 5505.34,560.714 5504.41,531.807C5503.61,506.828 5505.48,474.198 5505.23,447.124C5504.81,399.931 5535.92,354.147 5566.69,324.622C5587.98,304.187 5609.21,291.824 5619.22,290.256C5635.71,287.673 5669.9,287.115 5688.3,290.325C5710.64,294.224 5732.18,309.159 5749.96,329.488C5775.8,359.032 5793.54,399.737 5795.41,430.466C5797.91,471.628 5794.23,517.528 5792.99,552.835C5791.88,584.602 5774.15,616.463 5750.23,640.837C5726.64,664.872 5697.27,681.439 5673.82,684.431C5652.15,687.195 5643.27,685.65 5629.98,685.214ZM5630.35,672.098C5643.1,672.516 5651.62,674.05 5672.41,671.398C5715.23,665.936 5778.94,609.514 5780.94,552.336C5782.16,517.423 5785.84,472.035 5783.37,431.331C5780.5,384.182 5736.2,311.976 5686.39,303.282C5668.96,300.24 5636.56,300.797 5620.94,303.245C5598.72,306.726 5516.65,374.47 5517.3,446.996C5517.54,473.964 5515.67,506.468 5516.47,531.35C5517.9,575.933 5576.58,670.337 5630.35,672.098Z"/>
                    </g>
                    <g transform="matrix(0.504367,0,0,0.796407,2795.53,94.137)">
                        <path d="M5613.74,693.134C5591.25,692.397 5569.88,681.276 5552.56,662.434C5521,628.107 5501.44,566.961 5500.35,532.973C5499.55,507.884 5498.81,472.489 5499.27,445.299C5500.5,372.273 5546.15,312.134 5580.39,288.832C5586.4,284.737 5600.72,280.583 5619.42,279.336C5650.63,277.255 5696.54,280.231 5710.59,283.601C5735.02,289.459 5753.32,305.943 5765.23,329.025C5779.33,356.378 5784.95,393.543 5788.26,424.283C5792.74,465.847 5788.53,519.987 5787.29,555.469C5785.96,593.458 5772.46,630.677 5751.95,655.749C5735.43,675.948 5713.98,688.596 5691.06,691.519C5668.91,694.345 5627.33,693.579 5613.74,693.134ZM5614.72,674.446C5627.48,674.863 5666.51,675.706 5687.29,673.054C5730.11,667.592 5761.64,612.13 5763.64,554.952C5764.86,520.039 5769.1,466.768 5764.69,425.871C5759.5,377.608 5749.18,312.399 5703.73,301.501C5685.6,297.155 5608.76,294.194 5595.82,303.007C5564.69,324.194 5524.04,379.151 5522.92,445.549C5522.46,472.514 5523.2,507.617 5524,532.499C5525.43,577.082 5560.96,672.685 5614.72,674.446Z"/>
                    </g>
                </g>
            </g>
        </g>
    </g>
</svg>