<?xml version="1.0" encoding="UTF-8" standalone="no"?>
<!DOCTYPE svg PUBLIC "-//W3C//DTD SVG 1.1//EN" "http://www.w3.org/Graphics/SVG/1.1/DTD/svg11.dtd">
<svg width="100%" height="100%" viewBox="0 0 1369 1056" version="1.1"
    xmlns="http://www.w3.org/2000/svg" xmlns:xlink="http://www.w3.org/1999/xlink"
    xml:space="preserve" xmlns:serif="http://www.serif.com/"
    style="fill-rule:evenodd;clip-rule:evenodd;stroke-linecap:round;stroke-linejoin:round;">
    <g transform="matrix(1,0,0,1,-135.252,-1295.28)">
        <g transform="matrix(0.866322,0,0,2.25667,-4.84969,-1090.5)">
            <g id="Description" transform="matrix(1.06027,0,0,1.056,-59.1934,-85.1964)">
                <g transform="matrix(1.08869,0,0,0.419632,61.1083,538.287)">
                    <path d="M143.585,1406.96C591.775,1268.44 1052.04,1269.89 1495.82,1406.96L1495.82,2342.65L143.585,2342.65L143.585,1406.96Z" style="fill:white;"/>
                </g>
                <g transform="matrix(1.04876,0,0,0.447621,-484.639,186.006)">
                    <path d="M2073.15,2105.99L2073.15,2983.18L669.429,2983.18L669.429,2105.99" style="fill:none;stroke:black;stroke-width:16.4px;"/>
                </g>
                <g transform="matrix(1.1543,0,0,0.443132,3.26681,543.473)">
                    <path d="M185.532,1320.64C608.244,1189.47 1042.34,1190.85 1460.9,1320.64" style="fill:none;stroke:black;stroke-width:15.75px;"/>
                </g>
            </g>
        </g>
    </g>
</svg>