<?xml version="1.0" encoding="UTF-8" standalone="no"?>
<!DOCTYPE svg PUBLIC "-//W3C//DTD SVG 1.1//EN" "http://www.w3.org/Graphics/SVG/1.1/DTD/svg11.dtd">
<svg width="100%" height="100%" viewBox="0 0 361 34" version="1.1"
    xmlns="http://www.w3.org/2000/svg" xmlns:xlink="http://www.w3.org/1999/xlink"
    xml:space="preserve" xmlns:serif="http://www.serif.com/"
    style="fill-rule:evenodd;clip-rule:evenodd;stroke-linecap:round;stroke-linejoin:round;stroke-miterlimit:1.5;">
    <g transform="matrix(1,0,0,1,-19.9657,-14.6554)">
        <path d="M20.466,46.967L20.466,15.155L29.682,26.244L36.248,15.155L43.7,26.244L50.266,15.155L57.718,26.244L64.284,15.155L71.736,26.244L78.302,15.155L85.753,26.244L92.319,15.155L99.771,26.244L106.337,15.155L113.789,26.244L120.355,15.155L127.807,26.244L134.373,15.155L141.825,26.244L148.391,15.155L155.842,26.244L162.408,15.155L169.86,26.244L176.426,15.155L183.878,26.244L190.444,15.155L197.896,26.244L204.462,15.155L211.914,26.244L218.48,15.155L225.931,26.244L232.497,15.155L239.949,26.244L246.515,15.155L253.967,26.244L260.533,15.155L267.985,26.244L274.551,15.155L282.003,26.244L288.569,15.155L296.02,26.244L302.586,15.155L310.038,26.244L316.604,15.155L324.056,26.244L330.622,15.155L338.074,26.244L344.64,15.155L352.091,26.244L358.657,15.155L366.109,26.244L372.675,15.155L380.127,26.244L380.127,47.337L20.466,46.967Z" style="fill:rgb(207,207,207);"/>
        <path d="M372.675,15.155L380.127,26.244M366.109,26.244L372.675,15.155L380.127,26.244M352.091,26.244L358.657,15.155L366.109,26.244M338.074,26.244L344.64,15.155L352.091,26.244M324.056,26.244L330.622,15.155L338.074,26.244M316.604,15.155L324.056,26.244M310.038,26.244L316.604,15.155L324.056,26.244M296.02,26.244L302.586,15.155L310.038,26.244M282.003,26.244L288.569,15.155L296.02,26.244M267.985,26.244L274.551,15.155L282.003,26.244M260.533,15.155L267.985,26.244M253.967,26.244L260.533,15.155L267.985,26.244M239.949,26.244L246.515,15.155L253.967,26.244M225.931,26.244L232.497,15.155L239.949,26.244M211.914,26.244L218.48,15.155L225.931,26.244M204.462,15.155L211.914,26.244M197.896,26.244L204.462,15.155L211.914,26.244M183.878,26.244L190.444,15.155L197.896,26.244M169.86,26.244L176.426,15.155L183.878,26.244M155.842,26.244L162.408,15.155L169.86,26.244M148.391,15.155L155.842,26.244M141.825,26.244L148.391,15.155L155.842,26.244M127.807,26.244L134.373,15.155L141.825,26.244M113.789,26.244L120.355,15.155L127.807,26.244M99.771,26.244L106.337,15.155L113.789,26.244M92.319,15.155L99.771,26.244M85.753,26.244L92.319,15.155L99.771,26.244M71.736,26.244L78.302,15.155L85.753,26.244M57.718,26.244L64.284,15.155L71.736,26.244M29.682,26.244L36.248,15.155L43.7,26.244M43.7,26.244L50.266,15.155L57.718,26.244M20.466,26.244L20.466,15.155L29.682,26.244M20.466,46.967L380.127,47.337M20.466,46.967L20.466,26.244M380.127,26.244L380.127,47.337" style="fill:none;stroke:rgb(139,139,139);stroke-width:1px;"/>
    </g>
</svg>