<?xml version="1.0" encoding="UTF-8" standalone="no"?>
<!DOCTYPE svg PUBLIC "-//W3C//DTD SVG 1.1//EN" "http://www.w3.org/Graphics/SVG/1.1/DTD/svg11.dtd">
<svg width="100%" height="100%" viewBox="0 0 1778 428" version="1.1"
    xmlns="http://www.w3.org/2000/svg" xmlns:xlink="http://www.w3.org/1999/xlink"
    xml:space="preserve" xmlns:serif="http://www.serif.com/"
    style="fill-rule:evenodd;clip-rule:evenodd;stroke-linecap:round;stroke-linejoin:round;">
    <g transform="matrix(1,0,0,1,-88.1239,-27.955)">
        <path d="M345.686,341.923L298.626,135.428C744.669,3.55 1199.72,2.762 1656.03,135.943L1607.56,340.798C1180.71,217.72 762.656,216.632 345.686,341.923Z" style="fill:rgb(241,233,210);"/>
        <path d="M337.561,343.774L290.501,137.28C289.524,132.993 292.047,128.684 296.264,127.437C743.85,-4.898 1200.48,-5.699 1658.36,127.944C1662.62,129.186 1665.16,133.546 1664.14,137.862L1615.67,342.717C1615.15,344.935 1613.74,346.842 1611.77,347.993C1609.8,349.143 1607.44,349.437 1605.25,348.805C1179.99,226.186 763.499,225.08 348.084,349.904C345.873,350.568 343.486,350.285 341.492,349.124C339.497,347.962 338.074,346.025 337.561,343.774ZM351.833,331.392C764.787,209.016 1178.85,210.075 1601.46,330.382C1601.46,330.382 1646.09,141.737 1646.09,141.737C1196.47,11.973 748.114,12.717 308.492,141.214L351.833,331.392Z"/>
        <path d="M1536.78,358.136C1539.03,348.176 1540.5,338.67 1543.18,323.06L1607.52,340.973C1583.09,346.431 1558.38,352.266 1536.78,358.136Z" style="fill:rgb(241,233,210);"/>
        <path d="M1607.52,340.973L1644.66,187.17C1717.22,210.685 1788.22,234.621 1857.34,262.039L1757.84,326.187L1803.42,444.215C1716.03,411.596 1626.19,382.756 1536.78,358.136C1558.38,352.266 1583.09,346.431 1607.52,340.973Z" style="fill:rgb(241,233,210);"/>
        <path d="M1607.52,340.973L1644.66,187.17C1717.22,210.685 1788.22,234.621 1857.34,262.039L1757.84,326.187L1803.42,444.215C1716.03,411.596 1626.19,382.756 1536.78,358.136C1558.38,352.266 1583.09,346.431 1607.52,340.973L1543.18,323.06C1540.5,338.67 1539.03,348.176 1536.78,358.136" style="fill:none;stroke:black;stroke-width:16.67px;"/>
        <path d="M415.452,357.383L345.938,342.044L410.328,323.565C411.384,335.182 413.829,345.823 415.452,357.383Z" style="fill:rgb(241,233,210);"/>
        <path d="M345.938,342.044L415.452,357.383C323.612,382.352 233.582,412.92 147.529,447.25L197.397,327.255L96.457,262.754C166.237,234.256 236.366,209.626 309.808,187.495L345.938,342.044Z" style="fill:rgb(241,233,210);"/>
        <path d="M345.938,342.044L309.808,187.495C236.366,209.626 166.237,234.256 96.457,262.754L197.397,327.255L147.529,447.25C233.582,412.92 323.612,382.352 415.452,357.383C413.829,345.823 411.384,335.182 410.328,323.565L345.938,342.044L415.452,357.383" style="fill:none;stroke:black;stroke-width:16.67px;"/>
    </g>
</svg>