<?xml version="1.0" encoding="UTF-8" standalone="no"?>
<!DOCTYPE svg PUBLIC "-//W3C//DTD SVG 1.1//EN" "http://www.w3.org/Graphics/SVG/1.1/DTD/svg11.dtd">
<svg width="100%" height="100%" viewBox="0 0 1614 400" version="1.1"
    xmlns="http://www.w3.org/2000/svg" xmlns:xlink="http://www.w3.org/1999/xlink"
    xml:space="preserve" xmlns:serif="http://www.serif.com/"
    style="fill-rule:evenodd;clip-rule:evenodd;stroke-linecap:round;stroke-linejoin:round;">
    <g transform="matrix(1,0,0,1,-170.545,-27.955)">
        <path d="M345.686,341.923L298.626,135.428C744.669,3.55 1199.72,2.762 1656.03,135.943L1607.56,340.798C1180.71,217.72 762.656,216.632 345.686,341.923Z" style="fill:rgb(241,233,210);"/>
        <path d="M337.561,343.774L290.501,137.28C289.524,132.993 292.047,128.684 296.264,127.437C743.85,-4.898 1200.48,-5.699 1658.36,127.944C1662.62,129.186 1665.16,133.546 1664.14,137.862L1615.67,342.717C1615.15,344.935 1613.74,346.842 1611.77,347.993C1609.8,349.143 1607.44,349.437 1605.25,348.805C1179.99,226.186 763.499,225.08 348.084,349.904C345.873,350.568 343.486,350.285 341.492,349.124C339.497,347.962 338.074,346.025 337.561,343.774ZM351.833,331.392C764.787,209.016 1178.85,210.075 1601.46,330.382C1601.46,330.382 1646.09,141.737 1646.09,141.737C1196.47,11.973 748.114,12.717 308.492,141.214L351.833,331.392Z"/>
        <path d="M1697.53,205.558C1723.78,215.261 1749.25,225.476 1775.43,235.86L1675.93,300.008L1721.51,418.036C1692.78,407.311 1662.05,396.086 1632.89,386.194C1631.14,385.654 1629.39,385.116 1627.64,384.579C1597.38,375.293 1567.05,366.472 1536.78,358.136C1558.38,352.266 1583.09,346.431 1607.52,340.973L1644.66,187.17C1658.31,191.594 1674.84,197.736 1688.38,202.21C1691.44,203.319 1694.49,204.435 1697.53,205.558Z" style="fill:rgb(241,233,210);"/>
        <path d="M1697.53,205.558C1723.78,215.261 1749.25,225.476 1775.43,235.86L1675.93,300.008L1721.51,418.036C1692.78,407.311 1662.05,396.086 1632.89,386.194C1631.14,385.654 1629.39,385.116 1627.64,384.579C1597.38,375.293 1567.05,366.472 1536.78,358.136C1558.38,352.266 1583.09,346.431 1607.52,340.973L1644.66,187.17C1658.31,191.594 1674.84,197.736 1688.38,202.21C1691.44,203.319 1694.49,204.435 1697.53,205.558Z" style="fill:none;stroke:black;stroke-width:16.67px;"/>
        <path d="M1536.78,358.136C1539.03,348.176 1540.5,338.67 1543.18,323.06L1607.52,340.973C1583.09,346.431 1558.38,352.266 1536.78,358.136Z" style="fill:rgb(241,233,210);"/>
        <path d="M1607.52,340.973L1543.18,323.06" style="fill:none;stroke:black;stroke-width:16.67px;"/>
        <path d="M1536.78,358.136L1541.3,323.429" style="fill:none;stroke:black;stroke-width:16.67px;"/>
        <path d="M1536.78,358.136L1607.52,340.973" style="fill:none;stroke:black;stroke-width:16.67px;"/>
        <path d="M415.452,357.383L345.938,342.044L410.328,323.565C411.384,335.182 413.829,345.823 415.452,357.383Z" style="fill:rgb(241,233,210);"/>
        <path d="M326.261,383.531C291.763,395.623 263.375,406.221 229.95,419.555L279.819,299.56L178.879,235.059C194.322,228.752 209.782,222.635 225.291,216.692C240.832,210.737 256.421,204.958 272.093,199.339C278.018,197.459 284.465,195.396 290.93,193.352C297.368,191.316 303.826,189.298 309.808,187.495L345.938,342.044L415.452,357.383C415.452,357.383 352.883,374.2 326.261,383.531Z" style="fill:rgb(241,233,210);"/>
        <path d="M326.261,383.531C340.107,379.179 354.013,374.944 367.969,370.832C383.735,366.188 399.567,361.701 415.452,357.383C413.829,345.823 411.384,335.182 410.328,323.565L345.938,342.044L415.452,357.383C415.452,357.383 352.883,374.2 326.261,383.531C291.763,395.623 263.375,406.221 229.95,419.555L279.819,299.56L178.879,235.059C194.322,228.752 209.782,222.635 225.291,216.692C240.832,210.737 256.421,204.958 272.093,199.339C272.765,199.125 271.42,199.552 272.093,199.339C278.018,197.459 284.465,195.396 290.93,193.352C297.368,191.316 303.826,189.298 309.808,187.495L345.938,342.044" style="fill:none;stroke:black;stroke-width:16.67px;"/>
    </g>
</svg>